<?xml version="1.0" standalone="no"?>
<!DOCTYPE svg PUBLIC "-//W3C//DTD SVG 20010904//EN"
 "http://www.w3.org/TR/2001/REC-SVG-20010904/DTD/svg10.dtd">
<svg version="1.0" xmlns="http://www.w3.org/2000/svg"
 width="425.000000pt" height="291.000000pt" viewBox="0 0 425.000000 291.000000"
 preserveAspectRatio="xMidYMid meet">

<g transform="translate(0.000000,291.000000) scale(0.100000,-0.100000)"
fill="#000000" stroke="none">
<path d="M0 1455 l0 -1455 2125 0 2125 0 0 1455 0 1455 -2125 0 -2125 0 0
-1455z m1420 1101 c0 -2 -22 -18 -50 -36 l-50 -32 1 -902 c0 -772 3 -895 14
-861 8 22 62 202 120 400 81 274 289 973 421 1418 5 15 25 17 229 17 l224 0
65 -202 c104 -326 382 -1205 455 -1436 l66 -214 3 887 2 887 -22 18 c-13 10
-34 27 -48 38 l-25 21 460 0 c403 0 458 -1 441 -14 -11 -8 -32 -26 -48 -40
l-28 -25 0 -976 c0 -537 -1 -978 -2 -979 -2 -1 -55 -41 -119 -88 l-116 -87
-1279 0 -1279 0 -133 91 -132 90 0 977 0 977 -42 37 -43 37 458 1 c251 0 457
-2 457 -4z"/>
<path d="M1935 2399 c-8 -25 -255 -887 -255 -893 0 -3 133 -6 296 -6 278 0
296 1 289 18 -4 9 -77 213 -162 452 -85 239 -156 437 -158 439 -3 2 -7 -2 -10
-10z"/>
<path d="M1513 928 c-66 -227 -119 -416 -116 -420 6 -10 1203 -10 1203 0 0 4
-63 191 -139 417 l-139 410 -344 3 -345 2 -120 -412z"/>
</g>
</svg>
