<?xml version="1.0" standalone="no"?>
<!DOCTYPE svg PUBLIC "-//W3C//DTD SVG 20010904//EN"
 "http://www.w3.org/TR/2001/REC-SVG-20010904/DTD/svg10.dtd">
<svg version="1.0" xmlns="http://www.w3.org/2000/svg"
 width="323.000000pt" height="221.000000pt" viewBox="0 0 323.000000 221.000000"
 preserveAspectRatio="xMidYMid meet">

<g transform="translate(0.000000,221.000000) scale(0.100000,-0.100000)"
fill="#000000" stroke="none">
<path d="M863 2169 l-53 -40 1 -897 c1 -612 4 -886 11 -862 9 32 158 533 248
835 144 482 216 725 247 830 19 66 39 132 43 148 l9 27 -227 -1 -227 0 -52
-40z"/>
<path d="M1830 2199 c0 -11 89 -294 367 -1169 69 -217 144 -455 167 -529 l41
-134 3 879 2 879 -47 42 -48 42 -242 1 c-171 0 -243 -3 -243 -11z"/>
<path d="M0 1100 l0 -1100 165 0 c91 0 165 2 165 4 0 2 -19 16 -43 32 -23 16
-79 55 -125 87 l-82 58 0 978 0 978 -40 32 -40 32 0 -1101z"/>
<path d="M3188 2169 l-38 -31 0 -978 0 -978 -122 -91 -122 -91 162 0 162 0 0
1100 c0 605 -1 1100 -2 1100 -2 -1 -20 -14 -40 -31z"/>
<path d="M1431 2057 c-1 -4 -40 -141 -87 -305 -47 -163 -104 -359 -126 -436
-22 -76 -42 -145 -45 -152 -4 -12 43 -14 286 -14 160 0 291 4 291 8 0 5 -54
159 -119 343 -66 184 -137 386 -160 449 -22 63 -40 112 -40 107z"/>
<path d="M1125 978 c-23 -69 -235 -801 -235 -812 0 -3 269 -6 599 -6 l599 0
-43 123 c-23 67 -86 254 -140 415 l-97 292 -340 0 c-262 0 -340 -3 -343 -12z"/>
</g>
</svg>
