<?xml version="1.0" encoding="UTF-8" standalone="no"?>
<svg
   xmlns:dc="http://purl.org/dc/elements/1.1/"
   xmlns:cc="http://creativecommons.org/ns#"
   xmlns:rdf="http://www.w3.org/1999/02/22-rdf-syntax-ns#"
   xmlns:svg="http://www.w3.org/2000/svg"
   xmlns="http://www.w3.org/2000/svg"
   xmlns:sodipodi="http://sodipodi.sourceforge.net/DTD/sodipodi-0.dtd"
   xmlns:inkscape="http://www.inkscape.org/namespaces/inkscape"
   version="1.1"
   id="svg10"
   width="484.0336"
   height="484.0336"
   viewBox="0 0 484.0336 484.0336"
   sodipodi:docname="geassHome.svg"
   inkscape:version="1.0 (4035a4fb49, 2020-05-01)">
  <metadata
     id="metadata16">
    <rdf:RDF>
      <cc:Work
         rdf:about="">
        <dc:format>image/svg+xml</dc:format>
        <dc:type
           rdf:resource="http://purl.org/dc/dcmitype/StillImage" />
        <dc:title></dc:title>
      </cc:Work>
    </rdf:RDF>
  </metadata>
  <defs
     id="defs14" />
  <sodipodi:namedview
     inkscape:document-rotation="0"
     pagecolor="#ffffff"
     bordercolor="#666666"
     borderopacity="1"
     objecttolerance="10"
     gridtolerance="10"
     guidetolerance="10"
     inkscape:pageopacity="0"
     inkscape:pageshadow="2"
     inkscape:window-width="1920"
     inkscape:window-height="1057"
     id="namedview12"
     showgrid="false"
     inkscape:zoom="1.6176563"
     inkscape:cx="216.45587"
     inkscape:cy="268.14669"
     inkscape:window-x="-8"
     inkscape:window-y="-8"
     inkscape:window-maximized="1"
     inkscape:current-layer="g18" />
  <g
     inkscape:groupmode="layer"
     inkscape:label="Image"
     id="g18">
    <g
       style="fill:#ffffff;stroke:#ffffff"
       id="g856"
       transform="matrix(0.04951751,0,0,0.04951751,217.9382,220.28876)">
      <path
         style="fill:#ffffff;stroke:#ffffff;stroke-width:0.806723"
         d="m 237.57983,391.76482 c -1.77479,-1.45753 -11.03194,-8.76505 -20.57143,-16.23892 -31.95325,-25.0343 -53.17444,-44.03116 -56.11937,-50.23711 -1.83575,-3.86858 -1.30503,-10.0506 2.85207,-33.22181 3.59454,-20.0356 3.82957,-23.04931 2.00105,-25.65988 -0.68719,-0.9811 -8.58299,-7.48977 -17.54622,-14.46369 C 110.22177,222.39726 93.62574,208.49098 71.905487,188.01749 43.139796,160.90297 19.943512,132.08087 7.8780547,108.46141 3.2653305,99.431497 -0.43442554,90.518454 0.17645536,89.907579 0.36017377,89.723856 3.0875922,92.743863 6.2373851,96.618705 23.506471,117.86293 52.93933,142.38628 86.308975,163.33406 c 21.679215,13.6091 34.518285,20.73502 73.422115,40.75058 47.65349,24.51716 50.82353,26.53573 50.82353,32.36254 0,1.71412 -1.44032,10.51286 -3.2007,19.55275 -5.47216,28.10057 -5.80476,39.24847 -1.3684,45.86627 2.88812,4.30828 12.20468,10.75805 24.53548,16.98568 l 11.4958,5.80593 11.4958,-5.80593 c 12.3308,-6.22763 21.64736,-12.6774 24.53548,-16.98568 4.43636,-6.6178 4.10376,-17.7657 -1.3684,-45.86627 -1.76038,-9.03989 -3.2007,-17.83863 -3.2007,-19.55275 0,-5.82681 3.17004,-7.84538 50.82353,-32.36254 38.90383,-20.01556 51.7429,-27.14148 73.42211,-40.75058 33.36965,-20.94778 62.80251,-45.47113 80.07159,-66.715355 3.1498,-3.874842 5.87721,-6.894849 6.06094,-6.711126 1.44173,1.441735 -10.14063,24.348081 -18.88866,37.355921 -25.16689,37.42183 -59.13441,70.21855 -129.13082,124.67991 -8.96323,6.97392 -16.85903,13.48259 -17.54622,14.46369 -1.82852,2.61057 -1.59349,5.62428 2.00105,25.65988 4.17015,23.24399 4.69013,29.34838 2.83321,33.26153 -2.56096,5.39683 -23.65986,24.66446 -48.43664,44.23263 -23.82671,18.8178 -31.885,24.92377 -32.84836,24.88999 -0.5687,-0.0199 -2.48609,-1.22878 -4.26088,-2.68631 z"
         id="path898" />
      <path
         style="fill:#ffffff;stroke:#ffffff;stroke-width:0.806723"
         d="m 232.01939,387.25994 c -43.55787,-33.76781 -67.10083,-54.3644 -70.74426,-61.89071 -2.2223,-4.59067 -1.9265,-8.96502 2.06328,-30.5121 3.78802,-20.45738 4.25654,-25.58085 2.57408,-28.14861 -0.71779,-1.09548 -8.84594,-7.89387 -18.06256,-15.10752 -9.21662,-7.21365 -21.91157,-17.22663 -28.21098,-22.25106 C 58.91673,180.91772 18.047931,134.70444 2.4167021,96.798314 1.06912,93.530393 0.06483473,90.571391 0.18495707,90.222758 0.30507942,89.874116 2.7350342,92.492787 5.5848566,96.042028 25.037326,120.26861 58.491503,147.13202 99.630249,171.55967 c 17.991281,10.68298 27.716181,15.95954 59.697481,32.3908 46.41692,23.84796 51.22689,26.88306 51.22689,32.32436 0,1.65343 -1.4365,10.46429 -3.19222,19.57968 -5.4386,28.2363 -5.86303,39.94048 -1.66228,45.83988 3.75785,5.2774 14.35925,12.38825 28.8545,19.35403 l 7.46218,3.58599 7.46218,-3.58599 c 14.49525,-6.96578 25.09665,-14.07663 28.8545,-19.35403 4.20075,-5.8994 3.77632,-17.60358 -1.66228,-45.83988 -1.75572,-9.11539 -3.19222,-17.92625 -3.19222,-19.57968 0,-5.4413 4.80997,-8.4764 51.22689,-32.32436 42.65945,-21.91745 62.69709,-33.3314 85.91597,-48.93991 28.58192,-19.21373 53.65321,-41.06119 68.00619,-59.261534 2.73314,-3.465769 5.07502,-5.984366 5.20418,-5.596889 0.12916,0.387477 -0.86773,3.378256 -2.21531,6.646177 -15.63123,37.906126 -56.50003,84.119406 -117.22225,132.551626 -6.29941,5.02443 -18.99436,15.03741 -28.21098,22.25106 -9.21662,7.21365 -17.34477,14.01204 -18.06256,15.10752 -1.68092,2.56541 -1.21541,7.67019 2.56686,28.14861 3.55951,19.27221 4.12163,25.06113 2.81731,29.01325 -2.37492,7.1961 -25.74365,27.92433 -71.28039,63.22623 -5.24345,4.06492 -9.83709,7.39077 -10.20809,7.39077 -0.371,0 -4.86984,-3.25235 -9.99741,-7.22744 z"
         id="path896" />
      <path
         style="fill:#ffffff;stroke:#ffffff;stroke-width:0.806723"
         d="m 227.84618,383.91577 c -44.00626,-34.24205 -64.97322,-52.94105 -67.31356,-60.03235 -1.29211,-3.91511 -0.75673,-9.07624 3.26602,-31.48485 3.6852,-20.52835 3.85735,-23.50441 1.5307,-26.46227 -0.91424,-1.16227 -11.53273,-9.81493 -23.59664,-19.22813 C 129.66879,237.29496 114.71493,225.37848 108.50191,220.2271 60.210298,180.18727 26.062734,142.50818 8.9309048,110.35852 4.9242443,102.8396 -0.37355273,90.457587 0.17944274,89.904586 0.34158947,89.742443 1.9642184,91.517515 3.7852848,93.849194 18.290704,112.42184 41.644621,133.26916 68.974788,152.04185 c 26.22949,18.01665 46.160902,29.35273 102.485462,58.28909 34.85039,17.90414 39.09818,20.7282 39.08977,25.98805 -0.002,1.58085 -1.45351,10.3163 -3.22438,19.4121 -5.44543,27.96943 -5.87094,40.00116 -1.62552,45.9633 3.90415,5.48288 15.05164,12.96196 28.9318,19.41097 l 7.38488,3.43116 7.38488,-3.43116 c 13.88016,-6.44901 25.02765,-13.92809 28.9318,-19.41097 4.24542,-5.96214 3.81991,-17.99387 -1.62552,-45.9633 -1.77087,-9.0958 -3.22184,-17.83125 -3.22438,-19.4121 -0.008,-5.25985 4.23938,-8.08391 39.08977,-25.98805 56.32456,-28.93636 76.25597,-40.27244 102.48546,-58.28909 27.33017,-18.77269 50.68409,-39.62001 65.1895,-58.192656 1.82107,-2.331679 3.4437,-4.106751 3.60585,-3.944608 0.55299,0.553001 -4.7448,12.935014 -8.75146,20.453934 -17.13183,32.14966 -51.27939,69.82875 -99.57101,109.86858 -6.21302,5.15138 -21.16688,17.06786 -33.23079,26.48107 -12.06391,9.4132 -22.6824,18.06586 -23.59664,19.22813 -2.32665,2.95786 -2.1545,5.93392 1.5307,26.46227 4.02275,22.40861 4.55813,27.56974 3.26602,31.48485 -1.30309,3.94838 -9.65025,12.70354 -23.40015,24.54388 -14.9779,12.89781 -55.14193,44.79415 -57.586,45.73202 -0.55403,0.21261 -7.15493,-4.39699 -14.66865,-10.24355 z"
         id="path894" />
      <path
         style="fill:#ffffff;stroke:#ffffff;stroke-width:0.806723"
         d="m 237.17646,391.10259 c -30.04879,-22.74471 -61.58368,-49.08207 -71.18405,-59.45162 -7.52435,-8.1272 -7.58016,-9.12879 -2.17883,-39.10109 1.7479,-9.69924 3.17801,-19.33649 3.17801,-21.4161 0,-4.79281 -0.20845,-4.99545 -25.0084,-24.31116 C 77.252785,196.40661 41.807809,161.65407 17.776141,125.04201 9.8196163,112.92031 -1.0405506,91.124585 0.23868287,89.845349 0.37943346,89.7046 1.7761954,91.304081 3.3425984,93.399761 17.173171,111.90356 43.448614,134.9828 73.815124,155.29984 c 23.914672,16.00038 39.782556,25.11245 78.655456,45.16762 40.47637,20.88242 48.81003,25.42014 53.62413,29.19856 5.52635,4.33744 5.4921,3.62069 1.23289,25.79921 -4.13803,21.54759 -5.36535,33.73551 -4.05231,40.24147 0.87263,4.32376 1.46543,5.27545 6.00322,9.63783 5.57825,5.36261 14.3173,10.82149 25.42018,15.8788 l 7.31811,3.33338 7.31811,-3.33338 c 11.10288,-5.05731 19.84193,-10.51619 25.42018,-15.8788 4.53779,-4.36238 5.13059,-5.31407 6.00322,-9.63783 1.31304,-6.50596 0.0857,-18.69388 -4.05231,-40.24147 -1.77486,-9.24202 -3.22702,-18.04007 -3.22702,-19.55123 0,-5.12 3.81601,-7.44878 58.08404,-35.44654 14.42016,-7.4396 29.48571,-15.34837 33.47899,-17.57503 53.11001,-29.61441 92.73785,-60.19019 114.92852,-88.675782 1.97384,-2.533779 3.6994,-4.496285 3.83456,-4.361135 1.26963,1.269637 -9.62687,23.119287 -17.54763,35.186497 -24.03167,36.61206 -59.47665,71.3646 -124.20705,121.78061 -24.79995,19.31571 -25.0084,19.51835 -25.0084,24.31116 0,2.07961 1.43011,11.71686 3.17801,21.4161 5.791,32.13459 5.9585,30.98583 -6.27822,43.05738 -4.72849,4.66467 -14.04265,13.02898 -20.69811,18.58736 -16.59067,13.85587 -50.29507,40.3197 -51.3002,40.2796 -0.18153,-0.007 -2.32669,-1.52448 -4.76703,-3.37163 z"
         id="path892" />
      <path
         style="fill:#ffffff;stroke:#ffffff;stroke-width:0.806723"
         d="m 233.8824,388.56233 c -29.09784,-22.24806 -58.46023,-46.83092 -67.16169,-56.22929 -8.32329,-8.98992 -8.34254,-9.25529 -2.87818,-39.68385 1.73199,-9.64463 3.14906,-19.28187 3.14906,-21.41611 0,-4.95561 -0.004,-4.9594 -27.02521,-26.02558 C 115.55324,226.17465 110.07181,221.71943 94.789913,208.48871 47.920407,167.91014 16.006714,129.33214 2.8337787,97.330041 1.2171953,93.402738 0.01106402,90.072966 0.15348707,89.930547 0.29591013,89.78812 2.6389608,92.456831 5.3602663,95.861007 23.381101,118.4039 51.836999,142.02382 88.739493,165.07022 c 20.549837,12.83381 35.673767,21.13326 80.438767,44.14178 28.35609,14.5746 32.05501,16.65296 37.94778,21.32218 4.33745,3.43685 4.33737,3.42651 0.18989,24.93735 -4.17985,21.67868 -5.38929,33.65689 -4.05823,40.19233 0.88969,4.36828 1.47686,5.31239 6.02081,9.68067 5.54532,5.33095 14.5118,10.93988 25.54453,15.97921 l 7.19376,3.28583 7.19376,-3.28583 c 11.03273,-5.03933 19.99921,-10.64826 25.54453,-15.97921 4.54395,-4.36828 5.13112,-5.31239 6.02081,-9.68067 1.33106,-6.53544 0.12162,-18.51365 -4.05823,-40.19233 -4.14748,-21.51084 -4.14756,-21.5005 0.18989,-24.93735 5.89277,-4.66922 9.59169,-6.74758 37.94778,-21.32218 44.765,-23.00852 59.88893,-31.30797 80.43877,-44.14178 36.90249,-23.0464 65.35839,-46.66632 83.37922,-69.209213 2.72131,-3.404176 5.06436,-6.072887 5.20678,-5.93046 0.14243,0.142419 -1.06371,3.472191 -2.68029,7.399494 -13.17294,32.002099 -45.08663,70.580099 -91.95613,111.158669 -15.2819,13.23072 -20.76333,17.68594 -45.17647,36.71879 -27.02129,21.06618 -27.02521,21.06997 -27.02521,26.02558 0,2.13424 1.41707,11.77148 3.14906,21.41611 3.98045,22.16531 4.46179,26.54958 3.36288,30.63061 -1.15926,4.30516 -8.443,12.12189 -22.91799,24.59503 -15.34317,13.22124 -57.41818,46.63235 -58.69097,46.60558 -0.18236,-0.004 -3.81052,-2.66697 -8.06259,-5.91808 z"
         id="path890" />
      <path
         style="fill:#ffffff;stroke:#ffffff;stroke-width:0.806723"
         d="m 227.48237,383.4791 c -39.03594,-30.46739 -59.50408,-48.12298 -65.02427,-56.08923 -2.13407,-3.0797 -2.31212,-3.88545 -2.1824,-9.87579 0.0777,-3.58737 1.62054,-14.49866 3.42857,-24.24732 1.80803,-9.74865 3.28732,-19.56551 3.28732,-21.81522 0,-3.76293 -0.27449,-4.35147 -3.42857,-7.35121 -1.88571,-1.79345 -12.68571,-10.46918 -24,-19.27943 C 103.2286,216.52792 82.195504,198.29127 60.37564,176.16187 35.453962,150.88665 17.435306,127.41526 7.5068257,107.29411 3.3193726,98.807788 -0.25601247,90.352939 0.34274107,90.352939 c 0.17555868,0 2.75074433,2.93906 5.72263473,6.531251 24.5838062,29.71498 63.4977972,59.04354 117.3631942,88.45386 7.32101,3.99724 26.37983,13.97059 42.35294,22.163 39.99273,20.51177 44.77311,23.53991 44.77311,28.36156 0,1.43646 -1.45899,10.18657 -3.24221,19.44469 -1.7832,9.25812 -3.65286,21.03669 -4.15479,26.17458 -1.62042,16.58735 0.5579,21.22643 14.24266,30.33196 6.78207,4.51263 22.48715,12.46548 24.61652,12.46548 2.12937,0 17.83445,-7.95285 24.61652,-12.46548 13.68476,-9.10553 15.86308,-13.74461 14.24266,-30.33196 -0.50193,-5.13789 -2.37159,-16.91646 -4.15479,-26.17458 -1.78322,-9.25812 -3.24221,-18.00823 -3.24221,-19.44469 0,-4.82165 4.78038,-7.84979 44.77311,-28.36156 15.97311,-8.19241 35.03193,-18.16576 42.35294,-22.163 53.8654,-29.41032 92.77938,-58.73888 117.36319,-88.45386 2.9719,-3.592191 5.54708,-6.531251 5.72264,-6.531251 0.59875,0 -2.97663,8.454849 -7.16409,16.941171 -15.54301,31.49961 -50.76016,70.90146 -100.19065,112.09588 -6.21176,5.17676 -20.55126,16.62067 -31.86554,25.43091 -11.31429,8.81025 -22.11429,17.48598 -24,19.27943 -3.15408,2.99974 -3.42857,3.58828 -3.42857,7.35121 0,2.24971 1.47929,12.06657 3.28732,21.81522 3.80574,20.52003 4.36352,29.49135 2.0529,33.0182 -5.0442,7.69929 -25.11333,25.32441 -59.39064,52.15807 -17.11246,13.39633 -20.58901,16.04435 -21.06436,16.04435 -0.18735,0 -6.68754,-4.95372 -14.44486,-11.00828 z"
         id="path888" />
      <path
         style="fill:#ffffff;stroke:#ffffff;stroke-width:0.806723"
         d="m 229.46648,384.99649 c -39.92554,-31.11714 -62.77077,-50.86686 -67.73733,-58.55897 -2.32603,-3.60253 -1.81249,-12.20047 1.94942,-32.63852 1.82216,-9.89963 3.31302,-19.898 3.31302,-22.21859 0,-3.91012 -0.25122,-4.46027 -3.42857,-7.50827 -1.88571,-1.80896 -12.86723,-10.64849 -24.40336,-19.64341 C 103.98019,216.99868 87.452416,202.82459 65.881339,181.58576 33.156875,149.36535 12.475441,121.34418 1.9692262,94.991594 0.9520932,92.440334 0.23353931,90.352939 0.37243978,90.352939 c 0.13890048,0 2.26383222,2.489328 4.72207052,5.531842 C 24.83998,120.32336 58.493674,147.4011 99.226888,171.62362 c 16.589672,9.86525 31.422692,17.88098 64.537812,34.87609 41.38035,21.23694 46.78992,24.60399 46.78992,29.12317 0,1.25711 -1.43468,9.83523 -3.18818,19.06247 -7.89807,41.5612 -6.99612,46.31802 10.96389,57.82284 6.77659,4.34095 21.74516,11.79432 23.68647,11.79432 1.94131,0 16.90988,-7.45337 23.68647,-11.79432 17.96001,-11.50482 18.86196,-16.26164 10.96389,-57.82284 -1.7535,-9.22724 -3.18818,-17.80536 -3.18818,-19.06247 0,-4.51918 5.40957,-7.88623 46.78992,-29.12317 16.63865,-8.53917 35.51596,-18.42242 41.94958,-21.96277 52.28241,-28.77047 90.14235,-57.19226 113.90804,-85.511733 4.00276,-4.769747 7.39237,-8.672268 7.53247,-8.672268 0.1401,0 -0.57748,2.087395 -1.59462,4.638655 -7.99745,20.059906 -21.89714,41.028506 -42.91458,64.739496 -22.64158,25.54329 -50.44521,50.52213 -94.27585,84.69764 -11.53613,8.99492 -22.51765,17.83445 -24.40336,19.64341 -3.17735,3.048 -3.42857,3.59815 -3.42857,7.50827 0,2.32059 1.49086,12.31896 3.31302,22.21859 3.76191,20.43805 4.27545,29.03599 1.94942,32.63852 -3.70736,5.74188 -21.94469,22.24071 -44.34237,40.11533 -16.6001,13.24784 -35.48395,27.91074 -35.94528,27.91074 -0.22185,0 -5.8695,-4.26019 -12.55032,-9.4671 z"
         id="path886" />
      <path
         style="fill:#ffffff;stroke:#ffffff;stroke-width:0.806723"
         d="m 233.14285,387.84805 c -34.55889,-26.81274 -61.0957,-49.17514 -68.14161,-57.42246 -6.14912,-7.19762 -6.20305,-9.75176 -0.82273,-38.96532 1.53539,-8.33676 2.79646,-17.21722 2.80235,-19.73436 0.009,-3.99226 -0.29097,-4.8783 -2.35226,-6.93959 -1.29965,-1.29965 -12.09899,-9.94942 -23.99853,-19.22172 C 102.72874,216.03134 81.741215,197.84287 60.059524,175.7396 34.758126,149.94622 18.219499,128.32146 7.579861,107.12082 3.6160559,99.222516 -0.18710841,90.352939 0.38999794,90.352939 c 0.12924349,0 2.24627406,2.489328 4.70451236,5.531842 15.5631987,19.262269 39.3362177,39.931099 68.3172527,59.396639 24.007792,16.1252 42.701887,26.74359 88.739497,50.40473 42.25538,21.71726 48.40336,25.54271 48.40336,30.11799 0,1.12218 -1.43604,9.60431 -3.1912,18.84918 -5.33268,28.08867 -6.07252,39.23368 -2.99899,45.17724 1.62702,3.14629 7.95767,8.96741 13.86257,12.74681 6.10136,3.90515 21.96779,11.72514 23.7898,11.72514 1.82201,0 17.68844,-7.81999 23.7898,-11.72514 5.9049,-3.7794 12.23555,-9.60052 13.86257,-12.74681 3.07353,-5.94356 2.33369,-17.08857 -2.99899,-45.17724 -1.75516,-9.24487 -3.1912,-17.727 -3.1912,-18.84918 0,-4.57528 6.14798,-8.40073 48.40336,-30.11799 46.03761,-23.66114 64.73171,-34.27953 88.7395,-50.40473 28.98103,-19.46554 52.75405,-40.13437 68.31725,-59.396639 2.45824,-3.042514 4.57527,-5.531842 4.70452,-5.531842 0.5771,0 -3.22606,8.869577 -7.18987,16.767881 -11.44811,22.81162 -30.84716,47.50072 -59.10088,75.21751 -21.31933,20.91418 -38.31303,35.4422 -73.95696,63.22627 -11.89534,9.2723 -22.69125,17.92207 -23.9909,19.22172 -2.06129,2.06129 -2.36162,2.94733 -2.35226,6.93959 0.006,2.51714 1.26696,11.3976 2.80235,19.73436 5.38032,29.21356 5.32639,31.7677 -0.82273,38.96532 -5.24878,6.14375 -21.39661,20.25621 -42.32649,36.99136 -18.34804,14.67077 -34.34218,27.09292 -34.81116,27.03675 -0.1547,-0.0186 -4.09304,-2.99107 -8.75186,-6.60565 z"
         id="path884" />
      <path
         style="fill:#ffffff;stroke:#ffffff;stroke-width:0.806723"
         d="m 233.14285,387.84201 c -37.07492,-28.79127 -63.61896,-51.38078 -69.44873,-59.10224 -3.28292,-4.34821 -3.35289,-4.57516 -3.29633,-10.69198 0.0332,-3.5925 1.44536,-13.79504 3.3215,-23.99738 1.79505,-9.76134 3.26565,-19.80736 3.26801,-22.3245 0.004,-3.98769 -0.29973,-4.88062 -2.35837,-6.93926 -1.29946,-1.29946 -12.09114,-9.94924 -23.9815,-19.22171 C 77.545727,196.35621 42.411924,161.895 18.565045,125.81965 10.413897,113.48866 -0.18345356,92.687651 1.0547122,91.449485 1.2236331,91.280565 3.1266609,93.388693 5.2836629,96.134212 19.346457,114.0339 44.322957,135.73317 73.264408,155.19502 c 24.431022,16.4288 41.459032,26.11404 88.080122,50.09852 33.18529,17.07236 42.68382,22.4002 46.8144,26.25874 2.47387,2.31093 2.57348,2.6321 2.06199,6.64806 -0.29561,2.3209 -1.77724,10.57276 -3.29252,18.33747 -4.78384,24.51367 -5.55361,37.51141 -2.56397,43.29275 1.62702,3.14629 7.95767,8.96741 13.86257,12.74681 6.10136,3.90515 21.96779,11.72514 23.7898,11.72514 1.82201,0 17.68844,-7.81999 23.7898,-11.72514 5.9049,-3.7794 12.23555,-9.60052 13.86257,-12.74681 2.98964,-5.78134 2.21987,-18.77908 -2.56397,-43.29275 -1.51528,-7.76471 -2.99691,-16.01657 -3.29252,-18.33747 -0.51149,-4.01596 -0.41188,-4.33713 2.06199,-6.64806 4.13058,-3.85854 13.62911,-9.18638 46.8144,-26.25874 46.62109,-23.98448 63.6491,-33.66972 88.08012,-50.09852 28.94145,-19.46185 53.91795,-41.16112 67.98075,-59.060808 2.157,-2.745519 4.06002,-4.853647 4.22895,-4.684727 1.23817,1.238166 -9.35918,22.039175 -17.51033,34.370165 -23.84689,36.07535 -58.98068,70.53656 -122.08239,119.74529 -11.89036,9.27247 -22.68204,17.92225 -23.9815,19.22171 -2.05864,2.05864 -2.36211,2.95157 -2.35837,6.93926 0.002,2.51714 1.47296,12.56316 3.26801,22.3245 1.87614,10.20234 3.28828,20.40488 3.3215,23.99738 0.0564,6.09806 -0.0219,6.35509 -3.23335,10.60856 -3.42164,4.53193 -17.51927,17.42713 -32.80583,30.00772 -13.82327,11.37634 -45.11037,35.86776 -45.72023,35.78963 -0.14463,-0.0185 -4.07473,-2.99378 -8.73355,-6.61169 z"
         id="path882" />
      <path
         style="fill:#ffffff;stroke:#ffffff;stroke-width:0.806723"
         d="m 238.78991,392.17424 c -1.55294,-1.24249 -10.62857,-8.37544 -20.16807,-15.85102 -9.53949,-7.47557 -21.70084,-17.23439 -27.02521,-21.68627 -11.83369,-9.89452 -28.36891,-25.88254 -29.98331,-28.99108 -1.93085,-3.71783 -1.37903,-11.88916 2.11245,-31.28131 1.7962,-9.97635 3.26582,-20.24481 3.26582,-22.81879 0,-5.79084 1.54805,-4.26714 -27.01482,-26.59009 C 104.08727,216.90669 86.922181,202.24339 66.270125,181.99166 39.851897,156.08552 19.490316,130.26256 8.2933518,108.46437 3.9249758,99.960038 0.53426323,91.969934 1.0674449,91.436754 c 0.175924,-0.175922 1.7680539,1.595641 3.5380664,3.936815 8.3917817,11.099701 29.0795817,30.750191 46.2180167,43.900581 27.234089,20.89682 54.908892,37.47572 108.907562,65.24228 43.10235,22.16357 50.82353,26.87019 50.82353,30.98066 0,0.90115 -1.30513,8.45439 -2.90028,16.78497 -3.87354,20.22937 -5.13951,29.2678 -5.11585,36.52465 0.0328,10.0657 2.39702,14.25947 11.97885,21.24874 6.09649,4.44696 25.0125,14.24706 27.49946,14.24706 2.48696,0 21.40297,-9.8001 27.49946,-14.24706 9.58183,-6.98927 11.94604,-11.18304 11.97885,-21.24874 0.0236,-7.25685 -1.24231,-16.29528 -5.11585,-36.52465 -1.59515,-8.33058 -2.90028,-15.88382 -2.90028,-16.78497 0,-4.11047 7.72118,-8.81709 50.82353,-30.98066 53.99867,-27.76656 81.67348,-44.34546 108.90756,-65.24228 17.13844,-13.15039 37.82624,-32.80088 46.21801,-43.900581 1.77002,-2.341174 3.36215,-4.112737 3.53807,-3.936815 1.18886,1.18886 -9.26488,21.889756 -16.9521,33.569186 -23.87196,36.26941 -58.82407,70.64915 -121.95722,119.96008 -28.55637,22.30433 -27.01482,20.7876 -27.01482,26.57975 0,2.57398 1.46962,12.84244 3.26582,22.81879 3.49148,19.39215 4.0433,27.56348 2.11245,31.28131 -1.61848,3.1164 -18.17472,19.1196 -29.98331,28.98177 -12.52031,10.45657 -49.86964,39.89542 -50.5361,39.83269 -0.15809,-0.0148 -1.55802,-1.04362 -3.11096,-2.28609 z"
         id="path880" />
      <path
         style="fill:#ffffff;stroke:#ffffff;stroke-width:0.806723"
         d="m 236.7731,390.57736 c -2.66218,-2.11776 -11.91932,-9.42966 -20.57143,-16.24868 -8.6521,-6.81902 -19.90588,-15.86616 -25.0084,-20.10475 -11.30603,-9.39176 -27.96769,-25.45044 -29.5194,-28.45112 -1.89649,-3.66741 -1.30915,-12.43742 2.09083,-31.21973 3.06479,-16.93061 3.84894,-24.96816 2.72236,-27.90399 -0.2775,-0.72314 -11.44052,-9.8909 -24.80672,-20.37281 -37.68711,-29.5546 -54.30783,-43.7322 -75.416,-64.33042 C 35.757178,152.17573 12.797965,121.34929 2.9026572,96.872605 1.7513653,94.024818 0.91550438,91.588693 1.0451884,91.459012 1.1748725,91.329323 2.89864,93.294604 4.8757828,95.826294 20.584545,115.94104 51.707747,142.03375 85.231315,163.19382 c 22.790915,14.38563 37.599185,22.54099 87.810695,48.35999 24.57389,12.636 31.24722,16.47007 35.37962,20.32687 2.73994,2.55721 2.82103,1.51926 -2.08389,26.67393 -2.80947,14.40822 -3.31411,18.56951 -3.37518,27.83194 -0.0592,8.98515 0.17768,11.34727 1.35406,13.49981 1.94255,3.5545 6.08315,7.56859 11.83903,11.47734 6.10241,4.14407 23.68071,12.93881 25.86115,12.93881 2.18044,0 19.75874,-8.79474 25.86115,-12.93881 5.75588,-3.90875 9.89648,-7.92284 11.83903,-11.47734 1.17638,-2.15254 1.41331,-4.51466 1.35406,-13.49981 -0.0611,-9.26243 -0.56571,-13.42372 -3.37518,-27.83194 -4.90492,-25.15467 -4.82383,-24.11672 -2.08389,-26.67393 4.1324,-3.8568 10.80573,-7.69087 35.37962,-20.32687 50.21151,-25.819 65.01978,-33.97436 87.8107,-48.35999 33.52357,-21.16007 64.64676,-47.25278 80.35553,-67.367526 1.97714,-2.53169 3.70091,-4.496971 3.83059,-4.367282 0.12969,0.129681 -0.70617,2.565806 -1.85747,5.413593 -9.8953,24.476685 -32.85452,55.303125 -63.36168,85.073255 -21.10817,20.59822 -37.72889,34.77582 -75.416,64.33042 -13.3662,10.48191 -24.52922,19.64967 -24.80672,20.37281 -1.12658,2.93583 -0.34243,10.97338 2.72236,27.90399 3.41177,18.84741 3.99198,27.57765 2.07363,31.20126 -1.32763,2.50779 -14.79254,15.86038 -24.2585,24.05614 -9.23271,7.9938 -55.48662,44.73104 -56.21284,44.64712 -0.14176,-0.0164 -2.4359,-1.76249 -5.09809,-3.88024 z"
         id="path878" />
      <path
         style="fill:#ffffff;stroke:#ffffff;stroke-width:0.806723"
         d="m 238.01361,391.42429 c -21.44019,-16.73855 -39.38112,-31.01789 -47.2237,-37.58574 -11.74579,-9.83664 -27.5726,-25.09969 -29.12153,-28.08421 -1.88966,-3.64106 -1.29896,-12.27584 2.11521,-30.92028 1.78518,-9.74865 3.29207,-20.06633 3.34865,-22.92818 0.12356,-6.24888 2.63666,-3.75167 -27.50612,-27.33213 C 104.58211,217.1591 87.305084,202.39593 65.859883,181.54072 43.470467,159.76728 21.763147,132.83974 10.807543,113.24929 7.5325442,107.39304 0.56583621,91.938367 1.003602,91.500598 1.1561586,91.348039 2.89864,93.294604 4.8757828,95.826294 14.487351,108.1337 35.281165,127.64336 52.870425,140.85692 c 30.39602,22.83439 52.871825,36.1095 116.944695,69.07223 28.28154,14.54963 34.02232,17.81569 38.13761,21.69734 3.21508,3.03255 3.26947,1.77453 -1.04228,24.1046 -3.88603,20.12525 -4.65818,26.45292 -4.28084,35.08072 0.30342,6.93722 0.55338,7.92443 2.8041,11.07444 3.5285,4.93832 13.51974,11.88703 25.89401,18.00879 l 10.68908,5.28806 10.68908,-5.28806 c 12.37427,-6.12176 22.36551,-13.07047 25.89401,-18.00879 2.25072,-3.15001 2.50068,-4.13722 2.8041,-11.07444 0.37734,-8.6278 -0.39481,-14.95547 -4.28084,-35.08072 -4.31175,-22.33007 -4.25736,-21.07205 -1.04228,-24.1046 4.11529,-3.88165 9.85607,-7.14771 38.13761,-21.69734 64.07287,-32.96273 86.54868,-46.23784 116.94469,-69.07223 17.58927,-13.21356 38.38308,-32.72322 47.99465,-45.030626 1.97714,-2.53169 3.71963,-4.478255 3.87218,-4.325696 0.43776,0.437769 -6.52895,15.892442 -9.80394,21.748692 -11.3407,20.27906 -33.06965,47.04552 -56.90037,70.0918 -20.14696,19.48377 -39.00239,35.5073 -73.72072,62.64854 -28.05973,21.93586 -25.82683,19.6845 -25.70361,25.91625 0.0566,2.86185 1.56347,13.17953 3.34865,22.92818 3.41417,18.64444 4.00487,27.27922 2.11521,30.92028 -2.87247,5.53475 -25.38031,25.59762 -54.12993,48.24991 -21.87607,17.2365 -25.1572,19.68109 -26.35889,19.63853 -0.58833,-0.0208 -2.32658,-1.01915 -3.86279,-2.21849 z"
         id="path876" />
      <path
         style="fill:#ffffff;stroke:#ffffff;stroke-width:0.806723"
         d="m 221.84873,378.71354 c -34.26449,-26.97353 -57.16445,-47.11923 -60.17171,-52.93465 -1.89164,-3.65801 -1.3152,-11.98651 2.12713,-30.73324 1.79649,-9.78357 3.33935,-20.08134 3.42857,-22.88393 0.14969,-4.70167 -0.0248,-5.27765 -2.25793,-7.44996 -1.3311,-1.29488 -12.76639,-10.427 -25.41177,-20.2936 C 86.418334,202.95182 58.154114,176.63417 32.452004,144.68394 23.568672,133.64108 12.029119,115.95588 7.1792106,105.95155 3.2320368,97.809363 0.12006169,90.039446 1.4194535,91.570695 c 0.3729338,0.439478 2.1026512,2.614176 3.8438165,4.832664 9.233452,11.764701 30.374339,31.527351 47.980426,44.852421 28.339586,21.44866 54.092914,36.63495 115.897804,68.3429 28.09097,14.4116 34.4636,18.05675 38.82922,22.21035 3.10789,2.95695 3.24534,0.71307 -1.5888,25.93886 -3.60775,18.82625 -4.77777,33.73918 -3.12464,39.82621 1.82054,6.70344 11.28953,14.18374 28.87717,22.81231 l 9.88235,4.84834 9.88235,-4.84834 c 17.58764,-8.62857 27.05663,-16.10887 28.87717,-22.81231 1.65313,-6.08703 0.48311,-20.99996 -3.12464,-39.82621 -4.83414,-25.22579 -4.69669,-22.98191 -1.5888,-25.93886 4.36562,-4.1536 10.73825,-7.79875 38.82922,-22.21035 61.80489,-31.70795 87.55822,-46.89424 115.8978,-68.3429 17.60609,-13.32507 38.74697,-33.08772 47.98043,-44.852421 1.74117,-2.218488 3.47089,-4.393186 3.84382,-4.832664 1.29939,-1.531249 -1.81259,6.238668 -5.75976,14.380855 -4.84991,10.00433 -16.38946,27.68953 -25.2728,38.73239 -25.7021,31.95023 -53.96632,58.26788 -107.11101,99.73422 -12.64538,9.8666 -24.08067,18.99872 -25.41177,20.2936 -2.23305,2.17231 -2.40762,2.74829 -2.25793,7.44996 0.0892,2.80259 1.63208,13.10036 3.42857,22.88393 3.44233,18.74673 4.01877,27.07523 2.12713,30.73324 -1.63993,3.17128 -17.60227,18.38976 -30.56769,29.14323 -19.11164,15.8511 -48.50575,38.71545 -49.77209,38.71545 -0.66555,0 -9.74118,-6.71582 -20.16807,-14.92403 z"
         id="path874" />
      <path
         style="fill:#ffffff;stroke:#ffffff;stroke-width:0.806723"
         d="m 235.96638,389.77064 c -2.66218,-2.11776 -11.91933,-9.42937 -20.57143,-16.24803 -28.49097,-22.45354 -47.08142,-38.83714 -52.55462,-46.31593 -1.99325,-2.72366 -2.30252,-3.87655 -2.30252,-8.5835 0,-2.99049 1.47036,-13.55451 3.26745,-23.4756 1.7971,-9.92109 3.33996,-20.29805 3.42857,-23.05992 0.1482,-4.61874 -0.033,-5.2106 -2.25904,-7.37796 -1.3311,-1.29602 -12.76639,-10.4371 -25.41177,-20.31353 C 105.96139,218.15227 94.102578,208.10752 71.124529,186.42679 45.456941,162.20838 23.929302,135.96832 10.993191,113.13267 6.8897504,105.88901 1.2836173,93.640753 1.8241609,93.100209 2.009071,92.9153 4.5446143,95.579501 7.4587016,99.020657 23.786633,118.30182 47.73673,138.64925 76.322182,157.52544 c 24.334188,16.06889 41.912908,25.95548 90.499448,50.89852 30.63126,15.72528 36.75766,19.20692 41.14909,23.38507 3.10443,2.95366 3.24709,0.64872 -1.60544,25.93886 -4.12028,21.47382 -4.98527,35.98659 -2.48215,41.64531 2.75118,6.21952 13.24906,13.90917 29.86476,21.87583 l 8.26891,3.96466 8.26891,-3.96466 c 16.6157,-7.96666 27.11358,-15.65631 29.86476,-21.87583 2.50312,-5.65872 1.63813,-20.17149 -2.48215,-41.64531 -4.85253,-25.29014 -4.70987,-22.9852 -1.60544,-25.93886 4.39143,-4.17815 10.51783,-7.65979 41.14909,-23.38507 48.58654,-24.94304 66.16526,-34.82963 90.49945,-50.89852 28.3482,-18.71952 52.60821,-39.33164 68.85885,-58.504783 2.91663,-3.441156 5.45426,-6.105357 5.63917,-5.920448 0.54054,0.540544 -5.06559,12.788801 -9.16903,20.032461 -16.75271,29.57295 -45.38422,61.79834 -85.90241,96.68498 -12.44684,10.71688 -24.47679,20.4289 -51.55872,41.62441 -9.10534,7.12624 -17.09189,13.60602 -17.74789,14.39951 -1.82602,2.20871 -1.26174,9.10777 2.39695,29.30601 1.79709,9.92109 3.26745,20.48511 3.26745,23.4756 0,4.70695 -0.30927,5.85984 -2.30252,8.5835 -5.28939,7.22762 -23.68845,23.52268 -50.53782,44.75864 -23.03319,18.21764 -27.67742,21.71653 -28.78426,21.68556 -0.58546,-0.0164 -3.24263,-1.76249 -5.90481,-3.88024 z M 0.80672267,91.563023 c 0,-0.221849 0.1815126,-0.403362 0.40336133,-0.403362 0.2218487,0 0.4033613,0.181513 0.4033613,0.403362 0,0.221848 -0.1815126,0.403361 -0.4033613,0.403361 -0.22184873,0 -0.40336133,-0.181513 -0.40336133,-0.403361 z m 481.61342733,0 c 0,-0.221849 0.18152,-0.403362 0.40337,-0.403362 0.22184,0 0.40336,0.181513 0.40336,0.403362 0,0.221848 -0.18152,0.403361 -0.40336,0.403361 -0.22185,0 -0.40337,-0.181513 -0.40337,-0.403361 z"
         id="path872" />
      <path
         style="fill:#ffffff;stroke:#ffffff;stroke-width:0.806723"
         d="m 237.57983,390.96346 c -1.77479,-1.45459 -10.84587,-8.60802 -20.15795,-15.89652 -28.59655,-22.38233 -49.09661,-40.35739 -54.58329,-47.86026 -3.22132,-4.40506 -3.06083,-9.70455 0.95598,-31.56589 1.79123,-9.74866 3.33408,-20.21413 3.42858,-23.2566 l 0.1718,-5.53178 -3.54724,-3.15374 C 161.89673,261.96412 151.369,253.58872 140.45276,245.08668 129.53651,236.58463 114.34318,224.41039 106.6898,218.03281 60.577692,179.60748 28.095786,143.95844 10.945503,112.95302 6.5954954,105.08879 1.3189704,93.605394 1.8235704,93.100797 2.019412,92.904957 4.3656806,95.38304 7.0375008,98.607656 30.647893,127.10297 72.641359,158.3619 126.2521,187.34813 c 5.32437,2.87879 23.20945,12.18841 39.74463,20.68807 31.35364,16.11686 39.94037,21.06747 42.76127,24.65366 1.94824,2.47678 1.94831,2.47578 -1.48175,20.2177 -5.30782,27.45455 -6.201,40.37526 -3.24155,46.8924 2.69895,5.94349 13.34457,13.66464 29.44309,21.35474 l 8.53901,4.07899 8.53901,-4.07899 c 16.09852,-7.6901 26.74414,-15.41125 29.44309,-21.35474 2.95945,-6.51714 2.06627,-19.43785 -3.24155,-46.8924 -3.43006,-17.74192 -3.42999,-17.74092 -1.48175,-20.2177 2.8209,-3.58619 11.40763,-8.5368 42.76127,-24.65366 16.53518,-8.49966 34.42026,-17.80928 39.74463,-20.68807 53.54104,-28.94855 95.65803,-60.29901 119.21617,-88.740474 2.67096,-3.224616 5.01652,-5.702699 5.21236,-5.506859 0.19584,0.19584 -0.94953,3.247705 -2.54527,6.781916 -13.96585,30.931247 -39.25032,61.859117 -83.36298,101.969297 -9.26598,8.42525 -32.67067,27.61864 -52.72094,43.23467 -10.91624,8.50204 -21.44397,16.87744 -23.39495,18.61199 l -3.54724,3.15374 0.1718,5.53178 c 0.0945,3.04247 1.63735,13.50794 3.42858,23.2566 1.79122,9.74865 3.25676,20.13115 3.25676,23.07223 0,4.61773 -0.31572,5.77674 -2.31369,8.49366 -5.07221,6.8974 -22.95807,22.86027 -46.83542,41.79995 -23.18739,18.3924 -31.48176,24.67514 -32.52637,24.63778 -0.55748,-0.0199 -2.46569,-1.22637 -4.24048,-2.68095 z M 0.80672267,91.563023 c 0,-0.221849 0.1815126,-0.403362 0.40336133,-0.403362 0.2218487,0 0.4033613,0.181513 0.4033613,0.403362 0,0.221848 -0.1815126,0.403361 -0.4033613,0.403361 -0.22184873,0 -0.40336133,-0.181513 -0.40336133,-0.403361 z m 481.61342733,0 c 0,-0.221849 0.18152,-0.403362 0.40337,-0.403362 0.22184,0 0.40336,0.181513 0.40336,0.403362 0,0.221848 -0.18152,0.403361 -0.40336,0.403361 -0.22185,0 -0.40337,-0.181513 -0.40337,-0.403361 z"
         id="path870" />
      <path
         style="fill:#ffffff;stroke:#ffffff;stroke-width:0.806723"
         d="m 233.87351,387.93233 c -35.5444,-27.17175 -64.84811,-52.21941 -71.04399,-60.72565 -3.21072,-4.40794 -3.0482,-9.72394 0.96505,-31.56589 3.89979,-21.22444 4.32063,-27.62842 1.98694,-30.23545 -0.8874,-0.99132 -11.23623,-9.32915 -22.99741,-18.5285 C 116.43573,226.26769 105.75401,217.57585 92.773107,206.1823 59.496568,176.97494 35.668367,151.04813 18.942014,125.84874 11.312306,114.35406 0.79746109,94.126908 1.8859562,93.038414 2.0474856,92.876883 4.41344,95.445238 7.1436326,98.74588 18.444222,112.40761 36.124839,128.60911 55.207415,142.78877 83.36071,163.7086 108.0192,178.28786 162.95798,206.496 c 33.53192,17.21686 42.48422,22.30833 45.47571,25.86351 2.32741,2.76597 2.37105,2.04236 -1.26345,20.95141 -3.94995,20.55018 -4.65486,25.80762 -4.65105,34.68907 0.002,6.46973 0.35078,9.23282 1.47327,11.69748 2.7583,6.05641 12.82259,13.43689 28.79889,21.11919 l 9.22545,4.43611 9.22545,-4.43611 c 15.9763,-7.6823 26.04059,-15.06278 28.79889,-21.11919 1.12249,-2.46466 1.47049,-5.22775 1.47327,-11.69748 0.004,-8.88145 -0.7011,-14.13889 -4.65105,-34.68907 -3.6345,-18.90905 -3.59086,-18.18544 -1.26345,-20.95141 2.99149,-3.55518 11.94379,-8.64665 45.47571,-25.86351 54.93878,-28.20814 79.59727,-42.7874 107.75057,-63.70723 19.08257,-14.17966 36.76319,-30.38116 48.06378,-44.04289 2.73019,-3.300642 5.09614,-5.868997 5.25767,-5.707466 0.43008,0.430071 -1.76711,5.515369 -6.3337,14.659066 -11.8345,23.69625 -37.27538,54.98611 -67.42162,82.92215 -21.89498,20.28972 -33.84773,30.27765 -70.37552,58.80698 -9.9832,7.79719 -18.87731,14.98771 -19.76471,15.97893 -2.3337,2.60676 -1.91285,9.0108 1.98694,30.23525 4.01325,21.84195 4.17577,27.15795 0.96505,31.56589 -3.29334,4.52137 -15.68933,16.14781 -29.19197,27.37969 -18.98479,15.79211 -48.78453,39.09429 -49.99531,39.09429 -0.34302,0 -4.0075,-2.58675 -8.14329,-5.74833 z M 0.80672267,91.563023 c 0,-0.221849 0.1815126,-0.403362 0.40336133,-0.403362 0.2218487,0 0.4033613,0.181513 0.4033613,0.403362 0,0.221848 -0.1815126,0.403361 -0.4033613,0.403361 -0.22184873,0 -0.40336133,-0.181513 -0.40336133,-0.403361 z m 481.61342733,0 c 0,-0.221849 0.18152,-0.403362 0.40337,-0.403362 0.22184,0 0.40336,0.181513 0.40336,0.403362 0,0.221848 -0.18152,0.403361 -0.40336,0.403361 -0.22185,0 -0.40337,-0.181513 -0.40337,-0.403361 z"
         id="path868" />
      <path
         style="fill:#ffffff;stroke:#ffffff;stroke-width:0.806723"
         d="m 226.11838,381.85879 c -37.60418,-29.32321 -58.97779,-47.98538 -64.33255,-56.17135 -2.04071,-3.1197 -1.38343,-11.95316 2.38407,-32.04039 1.62276,-8.6521 3.01226,-18.14956 3.08777,-21.10545 0.12029,-4.70892 -0.1097,-5.63802 -1.8575,-7.50373 -1.09713,-1.17116 -9.99124,-8.36418 -19.76471,-15.9845 C 78.476517,196.68984 45.108687,164.37078 19.929376,127.29825 13.776552,118.23919 1.5868574,95.548047 1.6292347,93.232495 c 0.00868,-0.474514 1.3700286,0.764039 3.02521,2.752336 C 27.727423,123.7014 59.850651,149.13558 105.27731,175.65488 c 14.43843,8.42891 24.50359,13.82298 56.06722,30.04727 34.64522,17.80828 41.95854,21.9061 46.06194,25.80956 2.60082,2.4741 3.0873,3.41417 2.76453,5.34201 -0.21545,1.28675 -1.65439,9.05552 -3.19767,17.26392 -4.08808,21.7438 -4.54569,25.15573 -4.55616,33.97087 -0.007,6.07954 0.35193,8.7834 1.51458,11.40256 2.75192,6.19942 12.29715,13.2733 28.75409,21.30936 l 9.33096,4.55639 9.33096,-4.55639 c 16.45694,-8.03606 26.00217,-15.10994 28.75409,-21.30936 1.16265,-2.61916 1.52179,-5.32302 1.51458,-11.40256 -0.0105,-8.81514 -0.46808,-12.22707 -4.55616,-33.97087 -1.54328,-8.2084 -2.98222,-15.97717 -3.19767,-17.26392 -0.32277,-1.92784 0.16371,-2.86791 2.76453,-5.34201 4.1034,-3.90346 11.41672,-8.00128 46.06194,-25.80956 40.18731,-20.65702 53.82821,-28.21248 75.42857,-41.77865 34.77903,-21.84308 63.40522,-45.93985 82.60764,-69.536948 2.89613,-3.558946 1.82972,-0.563891 -3.98293,11.186208 -15.28552,30.89923 -44.13446,64.56195 -88.0133,102.69936 -13.18653,11.4611 -24.92602,20.97316 -50.33091,40.78125 -9.77347,7.62032 -18.66758,14.81334 -19.76471,15.9845 -1.7478,1.86571 -1.97779,2.79481 -1.8575,7.50373 0.0755,2.95589 1.45982,12.45335 3.07624,21.10545 3.07106,16.43829 4.21248,26.66566 3.3566,30.07578 -1.07454,4.28131 -18.52619,20.78727 -42.06592,39.78642 -15.63319,12.6177 -38.39671,30.17141 -39.12605,30.17141 -0.40591,0 -7.56019,-5.31984 -15.89842,-11.82187 z"
         id="path866" />
      <path
         style="fill:#ffffff;stroke:#ffffff;stroke-width:0.806723"
         d="m 231.83004,386.2766 c -39.02313,-30.16615 -63.15299,-50.9154 -68.95682,-59.29591 -3.20486,-4.6277 -3.08801,-8.82487 0.85257,-30.62303 1.75339,-9.69924 3.42915,-20.00745 3.72391,-22.90715 0.49743,-4.89339 0.38559,-5.45085 -1.55664,-7.75905 -1.15091,-1.36779 -11.99305,-10.22698 -24.09365,-19.6871 C 77.168702,195.47674 44.024441,163.04768 18.993812,125.84874 13.355013,117.46871 1.5901078,95.370447 1.6292347,93.232495 c 0.00868,-0.474514 1.3700286,0.770864 3.02521,2.767502 17.4129383,21.005153 40.6279673,41.094233 70.1994633,60.746963 23.903847,15.88611 41.778522,25.9839 90.544702,51.15067 40.88725,21.1007 45.56356,24.15385 44.71506,29.19439 -0.19454,1.15568 -1.61261,8.81722 -3.15127,17.02562 -4.07214,21.72408 -4.54937,25.26269 -4.58027,33.96238 -0.0215,6.04667 0.32938,8.66178 1.52287,11.35059 2.77626,6.25462 11.91618,13.10219 28.02105,20.99316 l 10.09075,4.9442 10.09075,-4.9442 c 16.10487,-7.89097 25.24479,-14.73854 28.02105,-20.99316 1.19349,-2.68881 1.54435,-5.30392 1.52287,-11.35059 -0.0309,-8.69969 -0.50813,-12.2383 -4.58027,-33.96238 -1.53866,-8.2084 -2.95673,-15.86994 -3.15127,-17.02562 -0.8485,-5.04054 3.82781,-8.09369 44.71506,-29.19439 48.76618,-25.16677 66.64086,-35.26456 90.5447,-51.15067 29.57149,-19.65273 52.78653,-39.74181 70.19947,-60.746963 1.65517,-1.996638 3.01652,-3.242016 3.02521,-2.767502 0.0391,2.137952 -11.72578,24.236215 -17.36458,32.616245 -25.03064,37.19894 -58.17489,69.628 -122.8056,120.15562 -12.1006,9.46012 -22.94274,18.31931 -24.09365,19.6871 -1.94223,2.3082 -2.05407,2.86566 -1.55664,7.75905 0.29476,2.8997 1.97052,13.20791 3.72391,22.90715 3.94058,21.79816 4.05743,25.99533 0.85257,30.62303 -2.86341,4.13466 -12.08824,13.07402 -23.88308,23.144 -14.6863,12.53861 -54.03877,43.55597 -55.2605,43.55597 -0.33485,0 -4.91889,-3.33183 -10.18676,-7.40406 z"
         id="path864" />
      <path
         style="fill:#ffffff;stroke:#ffffff;stroke-width:0.806723"
         d="m 229.79419,384.66562 c -41.21059,-32.0944 -62.98764,-51.01816 -67.42597,-58.5916 -1.90115,-3.24405 -2.02307,-4.02689 -1.57398,-10.10616 0.26775,-3.62434 1.75673,-13.4872 3.30887,-21.91745 1.55213,-8.43025 3.06066,-17.7002 3.35229,-20.5999 0.4969,-4.94079 0.39221,-5.4362 -1.66552,-7.88168 -1.20765,-1.43522 -12.0498,-10.29374 -24.09365,-19.68559 C 87.284561,203.45277 55.246404,173.52433 30.90386,142.38655 19.206885,127.42436 6.1950743,105.82111 2.7284716,95.607511 L 1.6295385,92.369745 4.2433406,95.594111 C 24.893788,121.06832 57.918609,147.64116 99.630249,172.34553 c 18.278841,10.82593 27.160001,15.63015 65.925431,35.66211 31.11446,16.07834 40.77123,21.58186 43.37623,24.72069 1.5452,1.86186 1.2662,4.6266 -2.4218,23.99788 -4.93157,25.90324 -5.48826,37.44723 -2.11994,43.96085 2.82937,5.47139 12.38509,12.30291 27.74428,19.83478 l 9.88235,4.84613 9.88235,-4.84613 c 15.35919,-7.53187 24.91491,-14.36339 27.74428,-19.83478 3.36832,-6.51362 2.81163,-18.05761 -2.11994,-43.96085 -3.688,-19.37128 -3.967,-22.13602 -2.4218,-23.99788 2.605,-3.13883 12.26177,-8.64235 43.37623,-24.72069 38.76543,-20.03196 47.64659,-24.83618 65.92543,-35.66211 41.71164,-24.70437 74.73646,-51.27721 95.38691,-76.751419 l 2.6138,-3.224366 -1.09893,3.237766 c -3.4666,10.213599 -16.47841,31.816849 -28.17539,46.779039 -24.34254,31.13778 -56.3807,61.06622 -110.79237,103.49669 -12.04385,9.39185 -22.886,18.25037 -24.09365,19.68559 -2.05773,2.44548 -2.16242,2.94089 -1.66552,7.88168 0.29163,2.8997 1.80016,12.16965 3.35229,20.5999 3.68869,20.03472 4.25234,27.39019 2.37684,31.017 -3.6395,7.03802 -24.02646,25.13354 -60.12246,53.36482 -19.77039,15.46275 -19.48651,15.24843 -20.19696,15.24843 -0.33991,0 -5.82709,-4.05676 -12.19372,-9.01504 z"
         id="path862" />
      <path
         style="fill:#ffffff;stroke:#ffffff;stroke-width:0.806723"
         d="m 237.17646,390.29586 c -11.60118,-8.78123 -35.49078,-27.81304 -46.34192,-36.9186 -15.55361,-13.05155 -24.72119,-21.75493 -27.90858,-26.49541 -2.48892,-3.70167 -2.53728,-3.94822 -2.08847,-10.64656 0.2527,-3.77143 1.73715,-13.75463 3.29877,-22.18488 1.56162,-8.43025 3.06904,-17.69727 3.34983,-20.59338 0.4775,-4.92519 0.36798,-5.43505 -1.69378,-7.88532 -1.21236,-1.4408 -12.60151,-10.76007 -25.30923,-20.70949 C 101.60843,214.4256 83.641966,198.88337 61.994401,176.96412 36.239593,150.88607 20.487199,130.71581 9.2860321,109.47336 5.1053924,101.54498 0.74631226,91.512239 2.2052745,93.176468 c 0.3889709,0.443697 3.8363502,4.436975 7.6608429,8.873952 23.4450576,27.19972 62.1374406,55.83105 113.1590926,83.73473 5.32437,2.91189 21.6605,11.45716 36.30252,18.9895 34.05433,17.51867 43.99488,23.05375 47.88483,26.66316 3.13411,2.90809 3.14016,2.92583 2.50634,7.3521 -0.34944,2.44034 -1.92669,11.1933 -3.50498,19.45103 -4.79791,25.10283 -5.18158,38.03109 -1.29084,43.49513 4.20007,5.89847 14.15893,12.65741 29.63154,20.11054 l 7.46218,3.59453 7.46218,-3.59453 c 15.47261,-7.45313 25.43147,-14.21207 29.63154,-20.11054 3.89074,-5.46404 3.50707,-18.3923 -1.29084,-43.49513 -1.57829,-8.25773 -3.15554,-17.01069 -3.50498,-19.45103 -0.63382,-4.42627 -0.62777,-4.44401 2.50634,-7.3521 3.88995,-3.60941 13.8305,-9.14449 47.88483,-26.66316 14.64202,-7.53234 30.97815,-16.07761 36.30252,-18.9895 52.45585,-28.68804 93.00621,-59.06021 115.8113,-86.742509 5.88665,-7.145595 5.90314,-7.154832 3.99162,-2.235921 -2.75485,7.08905 -9.92741,20.1834 -16.21798,29.60782 -11.34452,16.99615 -22.47796,30.22144 -42.55413,50.54958 -21.64757,21.91925 -39.61403,37.46148 -78.48868,67.8981 -12.70772,9.94942 -24.09687,19.26869 -25.30923,20.70949 -2.06176,2.45027 -2.17128,2.96013 -1.69378,7.88532 0.28079,2.89611 1.78821,12.16313 3.34983,20.59338 1.56162,8.43025 3.04607,18.41345 3.29877,22.18488 0.44881,6.69834 0.40045,6.94489 -2.08847,10.64656 -3.18739,4.74048 -12.35497,13.44386 -27.90858,26.49541 -16.09431,13.50528 -50.2215,40.33149 -51.25557,40.29024 -0.18153,-0.007 -2.32669,-1.52448 -4.76703,-3.37164 z"
         id="path860" />
      <path
         style="fill:#ffffff;stroke:#ffffff;stroke-width:0.806723"
         d="m 229.48306,384.29569 c -42.01632,-32.66609 -63.96008,-51.90666 -67.92416,-59.55677 -1.68443,-3.25073 -1.00827,-11.26756 2.57605,-30.54266 3.8999,-20.97222 4.25048,-24.94476 2.44466,-27.7008 -1.78304,-2.72126 -1.23923,-2.26967 -26.61323,-22.10004 C 102.35256,214.99934 81.755961,197.09929 60.059524,174.95014 40.591134,155.07551 29.95922,142.25283 18.343807,124.63865 11.834693,114.76792 -1.3982746,88.964625 2.2087296,93.176468 2.5887102,93.620165 4.6976128,96.155114 6.8951797,98.809683 29.61451,126.25372 69.62016,156.4727 119.82591,184.11394 c 4.45215,2.45118 19.5177,10.36127 33.47899,17.57799 39.9789,20.66544 46.81578,24.36486 51.78497,28.02068 4.3192,3.17763 4.65802,3.66055 4.65802,6.63903 0,1.76666 -1.4525,10.67101 -3.22779,19.78743 -4.74648,24.37408 -5.56281,38.89471 -2.50754,44.60353 2.81924,5.26781 16.25008,14.57337 30.54206,21.16105 l 7.46218,3.43959 7.46218,-3.43959 c 14.29198,-6.58768 27.72282,-15.89324 30.54206,-21.16105 3.05527,-5.70882 2.23894,-20.22945 -2.50754,-44.60353 -1.77529,-9.11642 -3.22779,-18.02077 -3.22779,-19.78743 0,-5.32522 1.63248,-6.32768 56.44299,-34.65971 13.96129,-7.21672 29.02684,-15.12681 33.47899,-17.57799 50.20575,-27.64124 90.2114,-57.86022 112.93073,-85.304257 2.19757,-2.654569 4.30647,-5.189518 4.68645,-5.633215 1.21507,-1.418815 -0.27831,2.136194 -5.08327,12.100842 -11.14147,23.10545 -30.29206,47.66711 -59.79274,76.68744 -20.94336,20.60234 -37.23166,34.55365 -72.88164,62.42485 -25.38364,19.84495 -24.8311,19.38599 -26.61323,22.10586 -1.80582,2.75604 -1.45524,6.72858 2.44466,27.7008 3.58432,19.2751 4.26048,27.29193 2.57605,30.54266 -3.64524,7.0348 -22.4458,23.83114 -57.86967,51.7005 -14.97372,11.78044 -22.16065,17.24124 -22.69107,17.24124 -0.19778,0 -5.79168,-4.22324 -12.4309,-9.38497 z"
         id="path858" />
    </g>
  </g>
</svg>
