<?xml version="1.0" encoding="UTF-8" standalone="no"?>
<svg
   xmlns:dc="http://purl.org/dc/elements/1.1/"
   xmlns:cc="http://creativecommons.org/ns#"
   xmlns:rdf="http://www.w3.org/1999/02/22-rdf-syntax-ns#"
   xmlns:svg="http://www.w3.org/2000/svg"
   xmlns="http://www.w3.org/2000/svg"
   xmlns:sodipodi="http://sodipodi.sourceforge.net/DTD/sodipodi-0.dtd"
   xmlns:inkscape="http://www.inkscape.org/namespaces/inkscape"
   version="1.1"
   id="svg10"
   width="484.67599"
   height="305.45401"
   viewBox="0 0 484.676 305.45401"
   sodipodi:docname="geassHome.svg"
   inkscape:version="1.0 (4035a4fb49, 2020-05-01)">
  <metadata
     id="metadata16">
    <rdf:RDF>
      <cc:Work
         rdf:about="">
        <dc:format>image/svg+xml</dc:format>
        <dc:type
           rdf:resource="http://purl.org/dc/dcmitype/StillImage" />
        <dc:title></dc:title>
      </cc:Work>
    </rdf:RDF>
  </metadata>
  <defs
     id="defs14" />
  <sodipodi:namedview
     inkscape:snap-page="false"
     inkscape:document-rotation="0"
     pagecolor="#000000"
     bordercolor="#666666"
     borderopacity="1"
     objecttolerance="10"
     gridtolerance="10"
     guidetolerance="10"
     inkscape:pageopacity="0"
     inkscape:pageshadow="2"
     inkscape:window-width="1920"
     inkscape:window-height="1057"
     id="namedview12"
     showgrid="false"
     inkscape:zoom="2.2877115"
     inkscape:cx="143.44798"
     inkscape:cy="225.99639"
     inkscape:window-x="-8"
     inkscape:window-y="-8"
     inkscape:window-maximized="1"
     inkscape:current-layer="g18" />
  <g
     inkscape:groupmode="layer"
     inkscape:label="Image"
     id="g18">
    <g
       style="fill:#ffffff;stroke:#ffffff"
       id="g856"
       transform="matrix(0.99999857,0,0,0.99999857,0.29324921,-89.436178)">
      <path
         style="fill:#ffffff;stroke:#ffffff;stroke-width:0.806723"
         d="m 237.57983,391.76482 c -1.77479,-1.45753 -11.03194,-8.76505 -20.57143,-16.23892 -31.95325,-25.0343 -53.17444,-44.03116 -56.11937,-50.23711 -1.83575,-3.86858 -1.30503,-10.0506 2.85207,-33.22181 3.59454,-20.0356 3.82957,-23.04931 2.00105,-25.65988 -0.68719,-0.9811 -8.58299,-7.48977 -17.54622,-14.46369 C 110.22177,222.39726 93.62574,208.49098 71.905487,188.01749 43.139796,160.90297 19.943512,132.08087 7.8780547,108.46141 3.2653305,99.431497 -0.43442554,90.518454 0.17645536,89.907579 0.36017377,89.723856 3.0875922,92.743863 6.2373851,96.618705 23.506471,117.86293 52.93933,142.38628 86.308975,163.33406 c 21.679215,13.6091 34.518285,20.73502 73.422115,40.75058 47.65349,24.51716 50.82353,26.53573 50.82353,32.36254 0,1.71412 -1.44032,10.51286 -3.2007,19.55275 -5.47216,28.10057 -5.80476,39.24847 -1.3684,45.86627 2.88812,4.30828 12.20468,10.75805 24.53548,16.98568 l 11.4958,5.80593 11.4958,-5.80593 c 12.3308,-6.22763 21.64736,-12.6774 24.53548,-16.98568 4.43636,-6.6178 4.10376,-17.7657 -1.3684,-45.86627 -1.76038,-9.03989 -3.2007,-17.83863 -3.2007,-19.55275 0,-5.82681 3.17004,-7.84538 50.82353,-32.36254 38.90383,-20.01556 51.7429,-27.14148 73.42211,-40.75058 33.36965,-20.94778 62.80251,-45.47113 80.07159,-66.715355 3.1498,-3.874842 5.87721,-6.894849 6.06094,-6.711126 1.44173,1.441735 -10.14063,24.348081 -18.88866,37.355921 -25.16689,37.42183 -59.13441,70.21855 -129.13082,124.67991 -8.96323,6.97392 -16.85903,13.48259 -17.54622,14.46369 -1.82852,2.61057 -1.59349,5.62428 2.00105,25.65988 4.17015,23.24399 4.69013,29.34838 2.83321,33.26153 -2.56096,5.39683 -23.65986,24.66446 -48.43664,44.23263 -23.82671,18.8178 -31.885,24.92377 -32.84836,24.88999 -0.5687,-0.0199 -2.48609,-1.22878 -4.26088,-2.68631 z"
         id="path898" />
    </g>
  </g>
</svg>
