<?xml version="1.0" standalone="no"?>
<!DOCTYPE svg PUBLIC "-//W3C//DTD SVG 20010904//EN"
 "http://www.w3.org/TR/2001/REC-SVG-20010904/DTD/svg10.dtd">
<svg version="1.0" xmlns="http://www.w3.org/2000/svg"
 width="661.000000pt" height="689.000000pt" viewBox="0 0 661.000000 689.000000"
 preserveAspectRatio="xMidYMid meet">
<metadata>
Created by potrace 1.16, written by Peter Selinger 2001-2019
</metadata>
<g transform="translate(0.000000,689.000000) scale(0.100000,-0.100000)"
fill="#000000" stroke="none">
<path d="M3125 6525 c-341 -29 -649 -98 -900 -203 -135 -56 -310 -144 -376
-188 -37 -24 -69 -44 -72 -44 -3 0 -26 -13 -50 -30 -25 -16 -48 -30 -51 -30
-4 0 -21 -14 -39 -30 -18 -17 -40 -33 -49 -36 -10 -3 -18 -9 -18 -14 0 -4 -24
-25 -52 -46 -131 -95 -413 -384 -514 -526 -104 -147 -163 -237 -199 -303 -21
-38 -46 -82 -56 -97 -11 -14 -19 -29 -19 -32 0 -3 -23 -54 -51 -113 -45 -94
-73 -165 -111 -283 -6 -19 -14 -37 -18 -40 -9 -6 -74 -266 -96 -380 -8 -41
-21 -115 -31 -165 -24 -128 -24 -686 0 -825 43 -257 88 -448 131 -559 19 -47
41 -111 50 -141 19 -60 33 -96 47 -120 19 -31 79 -163 79 -172 0 -6 10 -24 23
-41 12 -17 27 -39 32 -49 6 -9 25 -42 42 -72 18 -31 33 -60 33 -65 0 -5 3 -11
8 -13 4 -1 27 -32 52 -68 88 -128 193 -261 258 -327 11 -11 11 -24 -2 -76 -26
-107 -28 -157 -11 -262 9 -55 17 -108 18 -117 1 -10 5 -18 9 -18 4 0 8 -6 8
-14 0 -35 73 -164 117 -207 103 -100 120 -113 190 -147 90 -42 120 -38 68 10
-54 51 -79 131 -72 238 5 68 38 213 52 228 2 2 52 -30 112 -71 59 -40 113 -76
118 -78 6 -2 31 -17 56 -33 41 -26 48 -36 64 -90 10 -34 21 -63 25 -66 3 -3
17 -22 29 -43 13 -22 34 -49 47 -62 12 -12 32 -40 43 -61 46 -87 106 -124 207
-127 45 -1 69 4 90 18 22 15 44 18 94 16 77 -3 100 5 163 53 l48 36 62 -14
c300 -69 704 -77 1032 -21 l139 24 50 -37 c49 -36 53 -37 138 -37 60 0 89 -3
92 -12 15 -38 165 -34 231 7 33 20 85 80 85 98 0 5 21 36 48 68 26 33 62 92
81 130 33 69 35 72 137 135 57 35 116 71 130 79 15 8 41 27 58 43 17 15 35 26
41 24 20 -7 47 -141 48 -237 1 -80 -3 -103 -22 -143 -13 -26 -37 -58 -54 -72
-17 -13 -29 -27 -26 -30 13 -13 102 22 147 57 26 20 70 54 97 74 102 74 180
243 204 439 10 78 9 133 -1 151 -3 5 -8 30 -12 55 -6 38 -3 49 15 70 11 13 51
59 87 101 36 43 69 78 74 78 4 0 8 6 8 13 0 7 32 55 71 106 39 52 77 107 85
123 8 15 18 28 23 28 4 0 8 6 8 13 0 6 11 30 25 53 27 41 152 288 183 359 35
81 116 328 145 442 65 262 108 679 90 879 -18 200 -51 434 -76 544 -23 105
-108 380 -139 455 -54 129 -126 272 -196 393 -30 51 -61 105 -69 120 -14 25
-68 101 -80 112 -3 3 -23 30 -45 60 -171 239 -523 570 -745 700 -41 24 -90 55
-109 68 -52 38 -273 144 -427 205 -225 89 -592 167 -854 182 -58 3 -116 7
-130 9 -14 2 -92 -2 -175 -9z m312 -55 c765 -47 1441 -381 1952 -966 378 -432
614 -954 702 -1549 31 -214 31 -602 -1 -820 -41 -284 -138 -613 -254 -859 -31
-65 -56 -120 -56 -122 0 -3 -17 -33 -38 -67 -22 -34 -51 -84 -67 -112 -65
-117 -329 -455 -355 -455 -5 0 -13 14 -19 31 -11 31 -8 35 53 103 35 39 100
121 144 183 276 379 456 828 524 1302 29 200 31 597 5 781 -32 215 -82 431
-133 565 -14 39 -30 85 -36 103 -9 33 -37 96 -98 227 -94 200 -276 473 -429
644 -97 108 -265 271 -326 316 -22 16 -69 53 -105 81 -97 76 -273 185 -401
250 -114 57 -389 166 -451 179 -18 4 -62 16 -98 26 -98 30 -346 67 -518 78
-178 12 -393 0 -582 -30 -1081 -174 -1963 -993 -2245 -2084 -203 -782 -67
-1626 370 -2310 57 -89 172 -243 222 -298 38 -40 44 -53 38 -75 -11 -46 -21
-45 -66 3 -143 153 -329 439 -438 673 -420 900 -371 1957 132 2806 382 646
1001 1120 1712 1310 201 53 369 77 675 94 14 1 98 -3 187 -8z m261 -156 c90
-14 191 -33 225 -44 34 -10 78 -21 97 -25 19 -4 97 -31 175 -60 779 -290 1384
-916 1653 -1713 87 -257 125 -447 146 -747 14 -196 7 -378 -24 -620 -23 -173
-110 -486 -184 -663 -114 -271 -280 -542 -449 -734 l-68 -78 -62 93 c-75 112
-180 224 -307 327 -122 99 -259 242 -288 300 -19 39 -20 46 -7 60 34 37 260
531 293 640 96 316 54 627 -118 880 -21 30 -50 66 -64 79 -14 14 -26 28 -26
32 0 4 20 19 44 33 58 34 140 126 176 195 47 95 64 166 63 271 -1 105 -26 199
-81 299 -41 73 -125 167 -173 191 -21 11 -39 22 -39 23 0 2 9 44 20 94 42 193
54 303 54 505 1 108 -2 199 -5 203 -20 19 -361 -82 -559 -167 -194 -83 -436
-219 -553 -311 l-38 -29 -65 12 c-44 8 -97 10 -158 5 -107 -8 -114 -8 -231 0
-49 4 -121 3 -158 -2 -59 -8 -72 -7 -90 7 -104 81 -239 160 -442 259 -225 111
-519 212 -645 223 -35 3 -35 3 -42 -47 -21 -162 9 -490 68 -731 4 -17 -4 -27
-39 -47 -90 -53 -192 -202 -233 -343 -11 -38 -17 -92 -16 -154 0 -111 28 -206
87 -301 l36 -59 -11 -100 c-8 -72 -8 -122 0 -177 10 -71 9 -80 -15 -139 -89
-223 -97 -449 -23 -699 30 -103 249 -583 291 -640 18 -23 11 -47 -32 -108 -37
-54 -184 -198 -286 -280 -102 -82 -211 -198 -271 -290 -26 -40 -49 -74 -52
-77 -11 -14 -212 253 -300 397 -63 104 -197 375 -223 453 -63 184 -82 244
-109 353 -54 220 -72 376 -75 647 -3 211 -1 268 19 415 33 242 114 545 197
730 144 326 280 539 499 787 462 523 1112 848 1795 898 178 13 439 2 623 -26z
m-1798 -554 c8 -5 66 -39 128 -76 62 -37 119 -72 125 -78 7 -6 37 -27 67 -47
79 -52 246 -183 312 -245 l57 -54 -68 -34 c-141 -71 -252 -156 -399 -302
l-143 -143 -21 47 c-99 228 -174 635 -167 918 l2 73 46 -25 c25 -13 53 -28 61
-34z m2820 -250 c-24 -257 -73 -474 -146 -653 -53 -130 -163 -361 -169 -355
-15 14 -64 119 -70 148 -11 52 -76 188 -125 259 -57 85 -156 188 -246 257 -60
46 -72 60 -62 70 92 86 261 225 368 301 99 71 270 174 279 169 5 -4 13 -1 17
5 4 8 3 9 -4 5 -7 -4 -12 -5 -12 -2 0 11 71 47 81 40 8 -4 9 -3 5 4 -4 7 12
21 41 36 l48 24 3 -97 c2 -53 -2 -148 -8 -211z m-1450 -170 c14 1 75 2 135 2
98 1 120 -2 202 -30 227 -77 418 -216 556 -403 52 -72 127 -197 127 -213 0 -4
-27 26 -59 66 -80 100 -201 213 -289 272 -40 26 -75 46 -78 44 -2 -3 40 -41
94 -86 165 -136 319 -307 375 -417 38 -75 96 -220 112 -283 29 -112 13 -298
-34 -390 -35 -67 -102 -126 -170 -147 -23 -7 -23 -6 7 31 65 83 106 268 83
377 -7 34 -18 72 -25 86 -13 23 -14 21 -24 -36 -11 -60 -50 -152 -80 -186 -14
-16 -16 -16 -29 3 -12 17 -12 30 -4 71 25 114 6 250 -49 360 -32 62 -98 142
-134 161 -14 7 -8 -3 15 -29 20 -22 50 -62 65 -89 26 -44 29 -58 28 -130 -1
-107 -22 -163 -74 -198 -46 -30 -65 -33 -56 -9 4 9 10 37 13 61 4 32 10 42 20
37 71 -27 87 -6 20 26 -34 16 -47 31 -62 67 -18 44 -98 142 -115 142 -5 0 -2
-21 6 -47 20 -65 19 -117 -2 -109 -9 3 -37 6 -64 6 -46 0 -48 1 -54 32 -14 72
-86 194 -177 298 -50 58 -95 110 -101 115 -6 6 12 -33 40 -85 64 -121 82 -185
83 -285 1 -160 -45 -265 -116 -265 -31 0 -75 24 -75 40 0 5 11 12 25 16 66 17
74 150 16 269 -19 38 -52 86 -74 107 -34 32 -47 38 -84 38 -37 0 -50 -6 -88
-41 -124 -115 -158 -351 -53 -374 l32 -7 -28 -24 c-86 -74 -164 19 -174 207
-6 119 9 174 84 319 30 58 48 98 41 90 -59 -63 -179 -211 -208 -258 -21 -31
-47 -87 -60 -124 l-24 -68 -64 0 -64 0 7 52 c4 28 12 60 17 71 6 10 8 22 4 25
-12 12 -102 -95 -120 -142 -12 -31 -26 -48 -45 -56 -16 -7 -37 -21 -47 -32
-18 -21 -18 -21 9 -15 14 4 32 9 40 12 10 4 17 -10 26 -52 6 -31 10 -58 8 -61
-8 -8 -65 29 -89 58 -31 36 -40 78 -41 175 -1 62 3 76 33 125 18 30 45 68 60
84 23 25 23 27 4 17 -12 -6 -38 -30 -58 -53 -99 -115 -142 -283 -115 -443 10
-60 10 -78 0 -90 -10 -12 -16 -13 -28 -3 -21 18 -82 155 -83 187 0 14 -4 35
-8 45 -10 25 -51 -98 -51 -153 0 -104 44 -248 97 -318 l27 -36 -24 8 c-61 18
-140 88 -174 153 -43 84 -58 264 -31 378 20 88 107 287 159 364 75 113 251
286 435 427 2 2 2 5 -1 8 -8 9 -171 -109 -242 -175 -38 -36 -98 -101 -134
-145 -73 -89 -74 -78 -4 39 109 184 293 327 554 432 62 25 115 48 118 51 12
13 -101 -11 -174 -38 -268 -98 -481 -285 -663 -584 -154 -252 -200 -416 -190
-675 6 -176 35 -296 106 -445 71 -148 148 -224 228 -226 l28 0 -25 -10 c-35
-14 -134 6 -211 42 -112 53 -207 150 -282 290 -57 103 -78 188 -84 326 -5 113
-4 129 21 208 181 579 689 1071 1176 1140 63 9 133 20 155 25 22 5 76 6 120 4
44 -3 91 -5 105 -4z m-1441 -424 c62 -32 70 -39 89 -87 12 -29 20 -54 18 -57
-3 -2 -19 7 -36 21 -27 23 -114 69 -178 93 l-23 9 21 28 c12 15 26 27 31 27 5
0 40 -15 78 -34z m2971 9 c13 -14 22 -27 19 -29 -2 -2 -32 -16 -67 -30 -35
-14 -86 -41 -114 -61 -27 -20 -52 -35 -54 -32 -2 2 6 27 18 56 20 47 28 55 91
86 39 19 73 35 77 35 3 0 17 -11 30 -25z m-3040 -81 c67 -27 157 -81 177 -105
10 -12 7 -23 -14 -55 -14 -21 -27 -41 -29 -43 -2 -2 -36 8 -76 22 -91 31 -152
41 -173 29 -13 -7 -2 -12 44 -22 68 -14 67 -11 30 -97 -11 -25 -26 -44 -41
-49 -13 -4 -40 -18 -60 -31 l-38 -23 0 79 c0 57 7 102 24 155 24 76 70 166 85
166 4 0 36 -12 71 -26z m3107 -19 c51 -89 90 -256 77 -323 l-6 -31 -37 22
c-20 13 -48 28 -62 34 -18 8 -32 26 -42 55 -8 24 -18 50 -21 58 -5 12 6 19 54
29 70 16 71 37 1 27 -67 -9 -194 -53 -237 -82 -38 -26 -84 -27 -84 -1 0 33 54
114 96 146 55 40 203 112 224 108 8 -1 25 -20 37 -42z m-3038 -191 l52 -15
-31 -52 c-17 -29 -46 -83 -64 -122 -33 -68 -106 -154 -93 -110 3 11 15 63 27
115 22 98 50 200 54 200 1 0 26 -7 55 -16z m2930 -16 c26 -83 75 -300 76 -338
0 -8 4 -21 9 -28 9 -14 -38 -92 -60 -99 -6 -2 -26 25 -44 59 -53 101 -125 182
-240 269 l-47 35 19 37 c10 20 23 37 28 37 14 0 120 -91 174 -151 120 -131
149 -160 153 -155 8 7 -39 70 -95 128 -35 37 -49 61 -62 110 -9 35 -20 71 -24
80 -6 14 1 20 41 32 64 20 60 20 72 -16z m-1824 -69 c-59 -251 65 -502 194
-393 29 24 75 104 65 113 -2 3 -14 -6 -25 -18 -46 -49 -82 -2 -77 100 3 51 11
81 37 133 67 130 138 160 204 86 82 -90 121 -228 87 -310 -15 -36 -35 -38 -67
-8 -28 26 -30 10 -3 -41 59 -117 171 -104 221 26 30 80 37 226 15 312 -9 35
-14 66 -12 69 9 8 98 -139 117 -194 22 -62 24 -84 7 -84 -13 0 -48 -29 -48
-41 0 -4 16 -5 35 -2 33 5 35 4 37 -23 2 -40 1 -47 -6 -65 -11 -25 29 -31 77
-12 26 11 48 30 66 58 24 38 28 41 57 33 26 -6 33 -15 38 -41 3 -18 1 -48 -5
-66 l-11 -33 -52 9 c-198 32 -423 -24 -471 -116 -19 -38 -45 -188 -45 -262 l0
-59 -37 20 c-47 25 -93 25 -142 1 l-38 -20 -7 102 c-10 159 -26 215 -78 259
-60 52 -153 79 -282 81 -56 1 -124 -2 -152 -7 -51 -8 -51 -8 -62 23 -6 17 -8
46 -5 64 4 28 11 36 39 45 32 9 34 9 52 -27 22 -42 68 -72 112 -73 37 -1 44 5
32 29 -5 10 -7 33 -5 52 6 33 6 33 46 27 l41 -7 -24 26 c-13 14 -30 25 -38 25
-20 0 -10 48 28 127 31 66 89 157 96 150 3 -2 -2 -33 -11 -68z m1592 -121
c116 -109 162 -161 216 -245 l26 -42 -41 -30 c-23 -17 -45 -31 -49 -31 -4 0
-31 41 -59 91 -29 50 -80 127 -114 171 -33 45 -67 89 -74 98 -14 20 -6 50 14
50 7 0 44 -28 81 -62z m-2127 -119 c0 -38 62 -141 98 -162 l34 -20 -73 -34
c-40 -18 -74 -31 -77 -29 -19 19 -11 266 9 266 5 0 9 -9 9 -21z m1745 -34 c8
-59 3 -200 -6 -209 -3 -4 -38 9 -77 27 l-72 33 29 17 c37 21 90 104 98 151 8
52 21 44 28 -19z m444 -102 c28 -49 51 -93 51 -99 0 -15 -78 -37 -116 -32 -29
3 -29 3 -28 68 1 65 21 150 35 150 4 0 30 -39 58 -87z m-289 -188 c-7 -33 -28
-94 -48 -135 l-36 -75 -6 100 c-5 90 -3 103 15 125 24 30 49 87 67 150 l13 45
3 -75 c2 -41 -2 -102 -8 -135z m-2065 148 c8 -44 38 -106 64 -132 15 -15 17
-30 11 -122 l-6 -104 -32 68 c-44 92 -62 167 -62 260 0 80 12 96 25 30z m645
-7 c200 -30 250 -103 250 -366 0 -124 -18 -187 -57 -209 -35 -18 -175 -51
-289 -67 -137 -20 -253 -8 -337 35 -49 24 -53 30 -74 91 -42 125 -58 360 -23
351 42 -10 90 -13 90 -5 0 4 -12 21 -27 37 l-28 29 22 17 c40 33 273 99 353
100 19 0 73 -6 120 -13z m971 -1 c46 -8 116 -25 154 -38 135 -47 145 -56 100
-98 -13 -13 -25 -28 -25 -33 0 -7 56 -5 90 5 12 3 16 -10 18 -70 4 -91 -11
-190 -41 -279 -21 -64 -24 -68 -77 -94 -115 -57 -272 -57 -505 -1 -124 31
-147 47 -166 114 -13 51 -7 283 11 340 24 84 97 134 223 154 111 17 122 17
218 0z m854 -147 c54 -62 169 -286 190 -372 52 -209 31 -442 -62 -674 -42
-107 -220 -479 -233 -487 -3 -2 8 53 26 123 57 225 83 424 84 637 0 233 -39
426 -135 662 -31 75 -54 137 -53 138 3 2 104 21 125 24 6 0 32 -23 58 -51z
m-168 -316 l17 -123 -22 -62 c-53 -151 -77 -358 -68 -597 4 -96 9 -191 13
-210 4 -24 2 -32 -5 -25 -17 16 -71 366 -83 540 -7 96 -9 211 -4 288 7 123 8
127 31 133 42 11 39 74 -3 74 -9 0 -13 6 -10 14 3 8 9 31 13 50 4 24 12 36 23
36 43 0 57 68 20 94 -21 14 -21 15 -3 62 l18 47 22 -99 c13 -54 31 -154 41
-222z m-2466 259 c17 -38 17 -39 -1 -44 -23 -6 -37 -54 -23 -76 6 -9 19 -17
30 -19 15 -2 24 -15 32 -49 7 -25 11 -46 9 -47 -50 -22 -57 -54 -15 -74 23
-11 27 -19 28 -55 0 -23 2 -53 5 -66 4 -21 3 -22 -13 -10 -20 17 -66 116 -100
214 l-24 70 22 103 c12 56 24 100 27 97 3 -2 13 -22 23 -44z m2529 -230 c57
-187 74 -312 75 -561 0 -150 -5 -248 -14 -295 -20 -105 -99 -438 -127 -535
-14 -46 -27 -118 -31 -159 -8 -99 -17 -70 -32 99 -13 148 -9 189 44 465 69
356 69 363 69 645 1 262 -1 280 -40 480 -9 46 25 -39 56 -139z m-2891 -1 c12
-33 44 -93 72 -134 l50 -75 -11 -83 c-27 -218 0 -529 70 -814 16 -65 27 -120
25 -122 -10 -11 -209 415 -254 544 -73 209 -82 455 -24 639 16 50 40 105 47
105 2 0 13 -27 25 -60z m1627 -11 c20 -10 39 -34 60 -79 l31 -65 69 -23 c124
-40 214 -55 339 -56 101 0 130 4 180 22 104 39 98 39 90 1 -32 -154 -190 -321
-405 -429 -232 -116 -410 -152 -570 -114 -276 64 -545 229 -653 401 -29 46
-72 161 -64 170 4 3 30 -4 59 -16 120 -50 285 -50 477 -1 141 36 149 41 185
133 27 67 122 94 202 56z m-1136 -144 c6 -3 5 -15 -2 -31 -11 -23 -9 -28 7
-41 11 -7 29 -12 39 -9 11 3 31 -1 45 -9 14 -8 38 -19 54 -25 38 -13 34 -38
-10 -56 -45 -19 -92 -12 -132 22 -30 25 -31 29 -46 174 l-6 55 21 -37 c11 -20
24 -39 30 -43z m2159 -56 c-17 -196 1 -452 52 -709 12 -58 28 -122 36 -143 11
-27 14 -55 9 -100 -26 -253 -15 -389 44 -582 48 -156 96 -247 195 -365 99
-117 170 -211 192 -253 19 -38 16 -41 -139 -144 l-128 -85 -31 26 c-17 14 -38
26 -47 26 -27 0 -82 44 -82 65 0 37 -12 64 -30 70 -16 5 -13 16 30 108 26 56
58 144 71 196 20 82 21 100 11 149 -14 68 -44 102 -88 102 -72 0 -93 -45 -229
-484 -20 -65 -38 -116 -39 -115 -2 2 0 54 5 114 14 191 11 371 -6 412 -20 48
-43 73 -68 73 -16 0 -18 5 -14 33 14 80 18 251 8 345 -12 109 -32 163 -77 205
-26 24 -26 24 -10 71 26 77 18 190 -21 279 -14 32 -21 37 -42 35 -22 -3 -34
-19 -77 -106 l-50 -104 -40 68 c-49 84 -94 122 -129 106 -29 -13 -38 -53 -33
-146 3 -76 5 -75 -85 -37 -38 16 -49 28 -76 82 -17 34 -31 68 -31 76 0 7 -5
13 -11 13 -13 0 -1 139 13 157 8 10 15 7 29 -11 30 -39 119 -76 180 -76 49 0
139 31 139 48 0 4 -14 15 -30 24 -24 14 -30 24 -30 50 0 43 25 78 55 78 40 0
166 72 218 125 52 52 132 179 142 224 4 20 19 32 63 53 31 14 68 26 81 26 35
1 47 17 33 46 -8 19 -8 27 2 36 8 6 19 24 26 41 7 16 14 28 16 26 3 -2 -1 -60
-7 -128z m198 -181 c-6 -152 -25 -364 -43 -468 -6 -30 -8 -32 -14 -15 -14 32
-11 230 4 366 14 124 45 289 54 289 3 0 2 -78 -1 -172z m-2655 115 c27 -26 28
-31 28 -120 0 -157 13 -252 85 -638 46 -246 48 -272 34 -426 -15 -171 -24
-197 -32 -88 -3 46 -17 120 -31 164 -27 87 -94 365 -122 510 -27 134 -24 625
4 625 3 0 19 -12 34 -27z m584 -221 c24 -30 54 -62 66 -72 38 -29 158 -90 179
-90 33 0 59 -36 59 -81 0 -36 -3 -42 -30 -52 -16 -6 -30 -14 -30 -18 0 -18 90
-49 141 -49 60 0 141 32 173 69 33 36 43 26 50 -52 6 -71 5 -75 -34 -156 -38
-79 -43 -83 -95 -107 -31 -13 -60 -24 -65 -24 -6 0 -10 38 -10 88 0 95 -14
132 -51 132 -27 0 -94 -72 -121 -130 -21 -45 -38 -63 -38 -41 0 5 -21 53 -46
105 -39 82 -49 96 -70 96 -31 0 -50 -30 -70 -115 -18 -77 -14 -177 9 -221 12
-24 11 -28 -24 -63 -56 -56 -72 -123 -73 -306 0 -82 3 -171 7 -196 7 -42 6
-46 -18 -57 -16 -7 -35 -32 -50 -64 -23 -50 -25 -63 -24 -223 0 -93 4 -204 9
-245 4 -41 7 -76 5 -78 -1 -2 -17 50 -34 115 -70 258 -148 450 -192 474 -60
32 -121 -17 -134 -109 -8 -63 29 -207 87 -332 l44 -95 -23 -22 c-13 -12 -23
-33 -23 -47 0 -30 -37 -70 -71 -74 -13 -2 -36 -11 -51 -20 -25 -15 -28 -14
-115 43 -73 48 -134 93 -187 136 -10 9 95 163 159 234 120 132 169 217 223
385 59 185 76 376 51 557 -11 75 -10 90 9 155 40 139 75 354 87 536 l7 102 54
0 c67 0 93 12 123 56 l24 35 35 -63 c19 -35 54 -87 78 -116z m-498 155 c16
-19 42 -268 42 -402 0 -124 -13 -181 -24 -109 -10 69 -35 316 -41 422 -6 99
-1 119 23 89z m103 -44 c30 -11 49 -24 49 -33 -1 -68 -26 -286 -50 -433 -17
-98 -30 -183 -30 -188 0 -6 -3 -8 -7 -6 -5 3 -4 90 1 194 9 176 -1 391 -20
461 -8 27 -5 27 57 5z m832 -326 c60 -24 109 -48 109 -53 3 -18 -126 -63 -178
-64 -60 0 -68 6 -49 34 19 26 19 57 0 102 -11 26 -11 35 -2 30 6 -3 61 -25
120 -49z m792 17 c-19 -46 -19 -74 0 -100 19 -28 11 -34 -45 -34 -47 0 -180
47 -183 64 -1 4 41 25 93 45 52 20 104 42 115 49 32 19 36 14 20 -24z m-425
-159 c25 4 60 13 78 20 l32 14 0 -63 c0 -54 -3 -66 -26 -87 -23 -21 -34 -24
-109 -24 -69 0 -88 4 -112 21 -25 19 -28 28 -31 87 l-3 65 63 -20 c45 -14 76
-17 108 -13z m-667 -154 c33 -65 44 -97 38 -108 -7 -14 -10 -13 -20 6 -18 33
-55 25 -59 -14 -3 -37 8 -56 36 -58 52 -4 20 -56 -32 -53 -75 3 -94 155 -40
314 9 28 30 3 77 -87z m1366 53 c23 -66 26 -178 6 -229 -18 -50 -43 -63 -87
-46 -41 15 -44 31 -9 44 32 12 46 39 39 74 -5 25 -37 29 -53 6 -10 -13 -17
-15 -25 -7 -8 8 -6 21 9 48 12 20 35 64 52 97 16 33 35 59 42 56 7 -2 18 -21
26 -43z m-945 -179 c13 -14 50 -37 82 -52 109 -50 255 -32 344 44 l38 33 68
-28 c64 -26 69 -31 83 -74 18 -51 37 -77 63 -87 15 -5 13 -11 -17 -50 -19 -24
-35 -47 -35 -52 0 -4 15 -13 34 -19 46 -15 63 -35 46 -55 -11 -13 -15 -13 -33
0 -33 23 -73 19 -96 -11 -12 -15 -21 -32 -21 -39 0 -9 -13 -11 -45 -7 -42 4
-47 2 -78 -32 -19 -21 -43 -36 -56 -36 -34 0 -59 -17 -77 -53 -9 -18 -26 -41
-38 -53 -12 -11 -26 -29 -33 -40 -12 -19 -12 -19 -24 0 -7 11 -23 30 -36 42
-12 12 -23 26 -23 32 0 22 -58 72 -85 72 -17 0 -38 12 -61 36 -31 34 -37 36
-79 32 -32 -4 -45 -2 -45 7 0 7 -9 24 -21 39 -23 29 -64 35 -95 12 -13 -10
-23 -11 -31 -4 -21 17 -15 27 32 50 25 12 45 26 45 31 0 5 -16 27 -35 50 -34
40 -35 42 -15 49 32 12 45 29 64 83 15 47 20 51 79 76 78 34 74 34 101 4z
m-427 -140 c2 -1 -17 -25 -42 -54 -56 -66 -57 -84 -5 -105 74 -30 85 -24 101
47 l14 62 6 -60 c4 -34 3 -61 -2 -63 -20 -8 -29 -41 -18 -66 10 -21 7 -36 -20
-99 -46 -112 -61 -188 -61 -317 0 -155 21 -224 121 -401 l38 -67 -9 -89 c-6
-48 -17 -122 -26 -163 l-17 -75 -20 54 c-11 29 -42 76 -68 105 l-47 52 1 209
c1 163 -2 224 -15 271 -20 80 -45 132 -79 169 -26 29 -28 36 -34 160 -11 204
16 365 72 427 12 14 25 16 62 11 25 -3 47 -7 48 -8z m1396 -3 c57 -63 83 -212
73 -421 -6 -137 -8 -147 -30 -166 -69 -58 -96 -184 -96 -452 l0 -195 -50 -56
c-29 -32 -56 -76 -66 -104 -9 -27 -18 -47 -20 -45 -11 10 -44 213 -44 265 0
51 7 72 64 184 75 148 90 206 89 343 0 121 -14 193 -59 305 -30 75 -33 88 -22
114 10 25 9 31 -8 45 -17 14 -19 24 -14 76 l5 60 15 -60 c13 -53 18 -60 42
-63 14 -2 45 6 67 18 38 19 40 22 30 43 -7 12 -29 43 -51 69 l-39 47 38 4 c21
2 43 4 49 5 6 1 18 -6 27 -16z m-2124 -153 c-36 -72 -96 -161 -248 -364 -188
-251 -257 -379 -287 -533 -8 -43 -22 -111 -31 -152 -24 -113 -20 -245 11 -322
14 -34 23 -64 21 -66 -10 -11 -102 152 -129 228 -27 75 -30 97 -29 190 1 169
60 367 143 480 68 94 184 216 280 293 159 130 208 179 256 258 20 33 38 58 41
56 2 -3 -10 -34 -28 -68z m2759 9 c22 -35 51 -74 64 -88 26 -28 140 -127 208
-181 52 -42 146 -138 219 -224 130 -153 213 -436 182 -623 -16 -98 -59 -202
-116 -280 -25 -34 -47 -62 -49 -62 -2 0 8 23 21 50 32 67 47 198 33 287 -6 37
-13 70 -15 74 -3 3 -9 40 -15 80 -25 178 -99 325 -297 591 -165 221 -217 296
-254 369 -28 57 -33 69 -25 69 2 0 21 -28 44 -62z m-2678 -56 c0 -164 -50
-253 -257 -457 -83 -82 -175 -179 -203 -215 -57 -71 -76 -81 -73 -36 3 46 101
206 270 443 87 122 178 256 202 299 51 92 61 87 61 -34z m2610 99 c0 -12 98
-182 119 -206 15 -17 66 -87 195 -270 111 -157 206 -325 206 -365 0 -34 -24
-22 -60 33 -19 28 -111 129 -205 222 -182 180 -238 256 -269 364 -16 54 -22
184 -10 215 6 17 24 22 24 7z m-2590 -386 c-22 -112 -91 -229 -216 -366 -96
-103 -143 -164 -194 -249 -118 -196 -159 -436 -95 -559 22 -43 -1 -42 -42 1
-86 92 -118 188 -110 333 9 156 40 228 178 410 64 84 137 163 274 295 59 57
154 191 178 251 31 77 32 77 35 9 2 -36 -2 -92 -8 -125z m2580 95 c47 -93 106
-168 209 -270 197 -193 327 -362 378 -493 26 -66 28 -83 28 -202 0 -120 -2
-134 -27 -187 -28 -60 -102 -148 -124 -148 -9 0 -7 12 9 48 17 39 21 65 20
147 -2 207 -97 405 -303 630 -164 180 -226 299 -237 457 -6 83 3 134 17 88 4
-14 17 -45 30 -70z m-2469 -221 c31 -31 71 -125 124 -294 26 -82 55 -175 65
-206 l18 -57 -81 22 c-44 12 -84 28 -88 36 -24 44 -110 235 -124 277 -32 92 2
236 58 242 4 1 17 -9 28 -20z m355 4 c54 -54 74 -165 74 -415 0 -214 9 -196
-95 -175 -56 12 -60 14 -67 47 -15 70 -21 412 -9 470 18 83 57 113 97 73z
m1670 9 c37 -24 56 -170 43 -332 -4 -58 -8 -138 -8 -177 -1 -81 8 -71 -91 -93
-90 -19 -83 -41 -78 228 3 220 5 241 26 287 36 79 74 110 108 87z m353 -11
c20 -20 41 -100 41 -156 0 -42 -33 -131 -89 -242 -22 -46 -41 -89 -41 -97 0
-8 -8 -17 -17 -20 -108 -32 -164 -44 -160 -33 18 47 52 152 88 267 50 162 90
255 121 280 29 24 34 24 57 1z m-2810 -575 c31 -23 95 -68 143 -99 86 -55 88
-57 81 -89 -3 -18 -7 -34 -8 -36 -5 -6 -200 122 -257 167 -56 45 -56 45 -42
73 8 15 17 28 21 28 4 0 32 -20 62 -44z m535 15 c96 -39 183 -61 238 -61 50 0
112 -34 164 -91 42 -45 76 -150 76 -237 1 -118 -54 -208 -156 -253 -42 -18
-60 -20 -115 -15 -36 4 -76 14 -88 22 -25 16 -33 17 -33 6 0 -5 11 -15 25 -22
62 -33 -55 -47 -130 -16 -39 17 -105 72 -105 88 0 4 8 8 18 8 31 0 59 28 72
73 l12 44 39 -8 c48 -11 86 -3 99 21 13 24 13 72 0 106 -6 15 -9 28 -7 30 2 2
20 -1 41 -7 41 -11 41 -13 20 -86 -12 -45 17 -23 38 27 11 28 24 50 29 50 4 0
20 5 36 11 26 11 20 13 -63 24 -75 10 -101 18 -151 49 -82 51 -138 111 -158
171 -17 53 -13 95 10 95 8 0 48 -13 89 -29z m2222 5 c17 -70 -48 -166 -163
-238 -68 -42 -81 -47 -159 -53 -84 -7 -100 -18 -44 -30 24 -5 34 -16 51 -56
22 -49 47 -69 35 -26 -20 71 -20 72 20 85 21 6 39 10 41 9 1 -2 -3 -19 -9 -39
-27 -89 17 -139 106 -120 25 5 43 6 40 1 -3 -5 4 -29 15 -54 16 -36 26 -47 51
-51 16 -4 30 -10 30 -13 0 -13 -64 -68 -99 -86 -34 -17 -129 -24 -151 -10 -9
6 -5 12 14 22 14 7 26 18 26 24 0 5 -15 2 -32 -7 -51 -27 -172 -25 -224 3
-121 64 -168 230 -110 389 42 114 123 178 236 187 41 3 110 20 180 45 63 22
121 41 127 41 7 1 15 -10 19 -23z m524 -26 c7 -17 11 -32 9 -33 -2 -2 -24 -19
-49 -38 -36 -28 -210 -141 -267 -173 -10 -5 -13 4 -13 34 0 41 0 41 91 98 50
31 116 76 147 100 30 23 59 42 63 42 3 0 12 -14 19 -30z m-2860 -95 c23 -48
105 -128 157 -153 33 -16 48 -40 59 -96 8 -47 -8 -66 -56 -66 -69 0 -168 89
-198 179 -19 55 -13 181 8 181 5 0 18 -20 30 -45z m2385 25 c12 -37 6 -137 -9
-174 -37 -88 -129 -166 -196 -166 -48 0 -64 19 -56 66 12 59 25 78 70 103 59
31 125 97 148 149 21 46 33 53 43 22z m-2467 -45 c-7 -35 10 -122 33 -167 11
-21 42 -61 69 -90 53 -56 61 -83 33 -116 -20 -23 -46 -29 -84 -19 -32 8 -100
109 -124 185 -26 78 -17 163 20 202 36 38 59 40 53 5z m2537 17 c6 -4 21 -21
33 -39 79 -113 -61 -416 -172 -373 -26 9 -46 38 -46 64 0 9 23 41 51 72 67 75
102 150 103 226 1 55 8 67 31 50z m-1705 -392 c239 -42 629 -45 850 -5 124 22
137 20 155 -15 19 -37 31 -32 -155 -61 -126 -20 -181 -23 -415 -23 -246 1
-284 3 -430 28 -88 15 -163 30 -167 34 -12 12 15 62 32 62 8 0 67 -9 130 -20z"/>
<path d="M5490 4394 c95 -43 125 -88 78 -118 -13 -8 -58 -22 -101 -31 -63 -14
-77 -20 -73 -34 6 -18 -53 -133 -71 -139 -7 -2 -29 20 -50 49 -27 38 -39 48
-41 36 -2 -9 6 -32 17 -50 52 -84 92 -88 133 -12 15 28 30 64 34 81 5 28 10
31 67 44 94 20 137 48 137 89 0 38 -106 111 -160 110 -19 0 -12 -6 30 -25z"/>
<path d="M1000 3635 c-21 -25 -51 -156 -55 -245 -4 -75 -3 -79 5 -35 37 193
57 265 74 265 7 0 33 -36 57 -80 79 -144 99 -172 123 -166 12 3 58 11 103 18
158 23 176 -29 60 -180 -22 -29 -36 -56 -32 -60 11 -11 84 76 111 133 29 62
30 89 3 116 -20 20 -30 21 -103 17 -44 -3 -98 -13 -118 -21 l-38 -16 -54 112
c-71 147 -104 181 -136 142z"/>
<path d="M798 3281 c-131 -42 -171 -97 -110 -153 28 -27 119 -78 169 -95 l30
-11 -5 -111 c-4 -91 -2 -115 12 -136 9 -14 23 -25 30 -25 44 0 185 110 220
171 17 30 12 27 -41 -23 -67 -63 -148 -118 -174 -118 -25 0 -29 20 -29 145 l0
114 -81 42 c-111 58 -142 85 -128 111 14 26 122 76 181 84 26 4 45 10 42 15
-8 14 -53 10 -116 -10z"/>
<path d="M5427 2634 c-4 -4 5 -21 20 -38 31 -37 56 -93 48 -106 -8 -13 -44
-12 -123 2 -63 12 -65 11 -84 -13 -63 -79 -122 -139 -137 -139 -24 0 -31 27
-31 128 0 45 -4 82 -9 82 -14 0 -24 -94 -16 -152 10 -72 20 -88 55 -88 39 0
89 45 125 112 15 29 29 54 29 55 1 1 24 -4 51 -12 91 -28 175 -16 175 26 0 31
-28 91 -57 122 -28 28 -35 31 -46 21z"/>
<path d="M2861 3934 c-11 -15 -21 -31 -21 -37 0 -6 -18 -7 -45 -4 -43 6 -45 6
-35 -13 6 -11 23 -26 39 -35 26 -13 29 -20 33 -77 5 -82 34 -142 70 -146 43
-5 61 41 66 163 2 82 0 106 -15 135 -24 46 -62 52 -92 14z"/>
<path d="M3573 3934 c-12 -19 -19 -53 -22 -103 -6 -128 27 -218 76 -209 27 5
57 75 61 146 3 47 9 65 21 69 20 7 61 44 61 55 0 4 -19 5 -42 2 -41 -5 -44 -4
-58 28 -12 26 -22 34 -47 36 -25 3 -35 -2 -50 -24z"/>
<path d="M3141 3391 c-20 -13 -9 -70 39 -192 39 -101 62 -139 85 -139 16 0 47
60 89 172 39 106 45 152 20 162 -24 9 -217 7 -233 -3z"/>
</g>
</svg>
