<?xml version="1.0" standalone="no"?>
<!DOCTYPE svg PUBLIC "-//W3C//DTD SVG 20010904//EN"
 "http://www.w3.org/TR/2001/REC-SVG-20010904/DTD/svg10.dtd">
<svg version="1.0" xmlns="http://www.w3.org/2000/svg"
 width="300.000000pt" height="205.000000pt" viewBox="0 0 300.000000 205.000000"
 preserveAspectRatio="xMidYMid meet">
<metadata>
Created by potrace 1.10, written by Peter Selinger 2001-2011
</metadata>
<g transform="translate(0.000000,205.000000) scale(0.100000,-0.100000)"
fill="#ffffff" stroke="none">
<path d="M38 2012 l42 -37 0 -906 0 -907 120 -81 121 -81 1187 0 1187 0 113
82 112 82 0 905 0 906 42 37 43 37 -425 0 -425 0 43 -37 42 -37 -1 -820 -1
-820 -57 175 c-32 96 -88 272 -126 390 -37 118 -96 305 -131 415 -36 110 -93
290 -128 400 -35 110 -72 230 -82 268 l-19 67 -212 0 c-164 0 -213 -3 -213
-12 0 -7 -28 -105 -63 -218 -35 -113 -71 -232 -79 -265 -9 -33 -39 -132 -66
-220 -27 -88 -60 -196 -72 -240 -12 -44 -30 -105 -40 -135 -21 -65 -61 -196
-88 -295 -11 -38 -32 -108 -47 -155 -15 -47 -35 -112 -45 -145 -18 -59 -19
-47 -19 777 l-1 837 25 18 c81 57 112 52 -355 52 l-425 0 43 -37z m1357 -277
c7 -27 34 -104 60 -170 26 -66 54 -142 62 -170 9 -27 38 -110 65 -183 27 -73
46 -137 43 -142 -7 -12 -532 -14 -538 -2 -3 4 11 57 30 117 18 61 47 153 63
205 17 53 30 103 30 111 0 9 13 58 29 110 17 52 44 141 62 199 l32 105 24 -65
c14 -36 31 -87 38 -115z m315 -907 c17 -51 38 -108 46 -126 8 -18 25 -72 39
-120 23 -83 75 -234 95 -277 5 -11 18 -50 29 -87 l19 -68 -560 0 -559 0 6 21
c4 12 15 49 25 83 10 33 35 115 55 181 21 66 40 134 42 150 4 23 71 246 98
323 3 9 76 12 318 12 l315 0 32 -92z"/>
</g>
</svg>
